<svg width="419" height="423" viewBox="0 0 419 423" fill="none" xmlns="http://www.w3.org/2000/svg">
<g filter="url(#filter0_d_249_2065)">
<path d="M52.3433 269.583L61.631 287.234L70.8858 304.844L100.041 300.071C103.435 304.019 106.856 307.732 110.483 311.373L103.508 340.082L137.094 361.291L160.063 342.587C164.829 344.384 169.685 345.844 174.721 347.118L182.991 375.578L222.731 377.142L233.151 349.452C238.177 348.673 243.274 347.522 248.292 346.043L269.564 366.582L304.761 348.096L299.974 318.89C300.299 318.628 308.046 311.733 311.279 308.389L339.986 315.469L361.286 281.881L342.491 258.914C344.291 254.089 345.811 249.236 347.019 244.362L375.573 235.985L377.137 196.245L349.392 185.807C348.535 180.741 347.421 175.717 346.013 170.812L366.513 149.422L348.972 116.054L318.848 118.975C315.513 114.985 311.995 111.241 308.32 107.707L315.523 78.9475L281.793 57.6631L258.804 76.482C254.074 74.6664 249.208 73.142 244.191 71.9044L235.981 43.4483L196.172 41.9081L185.737 69.5483C180.594 70.4115 175.646 71.4727 170.692 72.9419L149.325 52.418L131.748 61.7135L114.133 70.9363L119.044 100.181C114.947 103.421 111.126 106.946 107.619 110.629L78.8849 103.541L57.6541 137.196L76.403 160.118C74.6202 164.888 73.0741 169.824 71.8582 174.771L43.3606 182.968L41.8022 222.787L69.4536 233.331C70.3861 238.254 71.4948 243.292 72.8603 248.335L52.3433 269.583ZM124.592 253.929C100.059 207.258 118.07 149.427 165.041 124.807C211.829 100.145 269.657 118.26 294.08 164.988C318.709 211.689 300.888 269.594 254.136 294.192C207.155 318.794 149.347 300.761 124.592 253.929Z" fill="url(#paint0_linear_249_2065)"/>
</g>
<defs>
<filter id="filter0_d_249_2065" x="22.8027" y="30.908" width="391.334" height="391.234" filterUnits="userSpaceOnUse" color-interpolation-filters="sRGB">
<feFlood flood-opacity="0" result="BackgroundImageFix"/>
<feColorMatrix in="SourceAlpha" type="matrix" values="0 0 0 0 0 0 0 0 0 0 0 0 0 0 0 0 0 0 127 0" result="hardAlpha"/>
<feOffset dx="9" dy="17"/>
<feGaussianBlur stdDeviation="14"/>
<feComposite in2="hardAlpha" operator="out"/>
<feColorMatrix type="matrix" values="0 0 0 0 0 0 0 0 0 0 0 0 0 0 0 0 0 0 0.25 0"/>
<feBlend mode="normal" in2="BackgroundImageFix" result="effect1_dropShadow_249_2065"/>
<feBlend mode="normal" in="SourceGraphic" in2="effect1_dropShadow_249_2065" result="shape"/>
</filter>
<linearGradient id="paint0_linear_249_2065" x1="184.26" y1="422.213" x2="388.043" y2="231.522" gradientUnits="userSpaceOnUse">
<stop stop-color="#B22635"/>
<stop offset="1" stop-color="#EA5571"/>
</linearGradient>
</defs>
</svg>
