<svg width="31" height="24" viewBox="0 0 31 24" fill="none" xmlns="http://www.w3.org/2000/svg">
<path d="M29 13.5C29.8284 13.5 30.5 12.8284 30.5 12C30.5 11.1716 29.8284 10.5 29 10.5L29 13.5ZM0.939338 10.9393C0.353552 11.5251 0.353551 12.4749 0.939338 13.0607L10.4853 22.6066C11.0711 23.1924 12.0208 23.1924 12.6066 22.6066C13.1924 22.0208 13.1924 21.0711 12.6066 20.4853L4.12132 12L12.6066 3.51472C13.1924 2.92893 13.1924 1.97918 12.6066 1.3934C12.0208 0.80761 11.0711 0.80761 10.4853 1.3934L0.939338 10.9393ZM29 10.5L2 10.5L2 13.5L29 13.5L29 10.5Z" fill="url(#paint0_linear_251_5156)"/>
<defs>
<linearGradient id="paint0_linear_251_5156" x1="6.63626" y1="12.0148" x2="6.63913" y2="11.1166" gradientUnits="userSpaceOnUse">
<stop stop-color="#FFD23F"/>
<stop offset="1" stop-color="#FFA514"/>
</linearGradient>
</defs>
</svg>
