<svg width="619" height="765" viewBox="0 0 619 765" fill="none" xmlns="http://www.w3.org/2000/svg">
<path fill-rule="evenodd" clip-rule="evenodd" d="M128.688 619.717H206.36V563.348V502.682H148.251H128.345L128.688 619.717Z" fill="#5E1675"/>
<path fill-rule="evenodd" clip-rule="evenodd" d="M206.363 502.682V563.349L269.877 509.142L267.715 415.492L201.512 476.317H148.254V502.682H206.363Z" fill="#5E1675"/>
<path fill-rule="evenodd" clip-rule="evenodd" d="M269.875 510.064V624.121H312.376L312.27 501.047H269.849L269.875 510.064Z" fill="#5E1675"/>
<path fill-rule="evenodd" clip-rule="evenodd" d="M411.22 406.316L409.322 501.047L438.297 552.723V612.335V625.913L444.361 625.887L444.651 495.827L444.704 473.442L411.22 406.316Z" fill="#5E1675"/>
<path fill-rule="evenodd" clip-rule="evenodd" d="M411.22 406.317L444.704 473.443L468.749 472.23L434.263 406.185L411.22 406.317Z" fill="#8529BA"/>
<path fill-rule="evenodd" clip-rule="evenodd" d="M479.665 493.48L479.138 493.507L473.944 493.876L473.364 471.992L444.705 473.442L473.364 471.992L444.705 473.442L444.652 495.827L444.362 625.887L478.426 625.808L479.665 493.48Z" fill="#5E1675"/>
<path fill-rule="evenodd" clip-rule="evenodd" d="M479.665 493.48L478.426 625.808L511.33 625.702L510.961 493.111L493.19 492.583L479.665 493.48Z" fill="#8529BA"/>
<path fill-rule="evenodd" clip-rule="evenodd" d="M409.323 501.047L407.293 650.222L438.298 647.586V552.723L409.323 501.047Z" fill="#5E1675"/>
<path fill-rule="evenodd" clip-rule="evenodd" d="M421.054 203.593L391.683 186.192L383.087 193.891L383.14 205.966L383.457 268.874L384.168 418.286L383.14 500.52L409.321 501.047L403.679 500.915L405.261 344.621L398.037 325.744V190.806H399.46L421.054 203.593Z" fill="#5E1675"/>
<path fill-rule="evenodd" clip-rule="evenodd" d="M438.033 413.383L437.585 344.305L405.261 344.622L403.679 500.916L409.321 501.021L411.219 406.29L434.289 406.159L438.033 413.383ZM429.095 325.744L429.332 217.778L429.359 209.13L421.054 203.594L399.46 190.806H398.037V325.744H429.095Z" fill="#8529BA"/>
<path fill-rule="evenodd" clip-rule="evenodd" d="M354.006 221.311L383.377 251.394L383.14 205.966L374.176 199.981L354.006 221.311Z" fill="#8529BA"/>
<path fill-rule="evenodd" clip-rule="evenodd" d="M276.784 218.226L295.661 187.299L254.215 154.475L236.049 186.535L276.784 218.226Z" fill="#5E1675"/>
<path fill-rule="evenodd" clip-rule="evenodd" d="M254.214 154.475L295.661 187.299L318.256 162.806L310.056 156.716L301.355 150.256L288.041 167.499L272.565 156.716L285.826 138.708L278.339 133.145L254.214 154.475Z" fill="#8529BA"/>
<path fill-rule="evenodd" clip-rule="evenodd" d="M272.565 156.715L288.068 168.395L311.48 130.666L295.951 119.092L272.565 156.715Z" fill="#5E1675"/>
<path fill-rule="evenodd" clip-rule="evenodd" d="M307.05 144.43L331.623 161.541L345.886 137.496L357.013 131.801L339.717 118.802L317.992 135.518L314.354 132.802L307.05 144.43Z" fill="#5E1675"/>
<path fill-rule="evenodd" clip-rule="evenodd" d="M311.479 130.667L317.991 135.518L338.582 100.795L297.953 70.1321L278.97 106.437L295.95 119.092L311.479 130.667Z" fill="#5E1675"/>
<path fill-rule="evenodd" clip-rule="evenodd" d="M297.954 70.1316L338.583 100.794L362.206 77.5929L353.4 71.2917L337.818 60.1655L321.63 48.5911L297.954 70.1316Z" fill="#8529BA"/>
<path fill-rule="evenodd" clip-rule="evenodd" d="M362.208 77.593L338.585 100.794L317.994 135.518L339.719 118.802L335.079 115.322L341.274 105.092L352.031 98.1053L354.721 100.056L362.208 77.593Z" fill="#491772"/>
<path fill-rule="evenodd" clip-rule="evenodd" d="M354.719 100.056L352.03 98.1055L341.272 105.092L335.077 115.322L340.877 119.699L361.231 134.938L389.706 156.32L398.406 143.058L403.416 135.412L354.719 100.056Z" fill="url(#paint0_linear_228_18)"/>
<path fill-rule="evenodd" clip-rule="evenodd" d="M419.632 118.934L398.408 143.058L441.305 174.354L461.21 149.069L449.425 140.527L435.293 130.271L419.632 118.934Z" fill="#8529BA"/>
<path fill-rule="evenodd" clip-rule="evenodd" d="M398.406 143.059L389.705 156.32L377.05 175.594L419.023 206.019L441.302 174.354L398.406 143.059Z" fill="#5E1675"/>
<path fill-rule="evenodd" clip-rule="evenodd" d="M446.498 118.723L460.946 129.032L451.27 138.682L468.196 150.546L490.264 118.934L450.901 90.1958L441.304 103.695L428.648 122.836L437.481 129.322L446.498 118.723Z" fill="#5E1675"/>
<path fill-rule="evenodd" clip-rule="evenodd" d="M460.945 129.032L446.497 118.723L436.135 130.904L450.742 141.503L460.945 129.032Z" fill="#5E1675"/>
<path fill-rule="evenodd" clip-rule="evenodd" d="M326.903 142.32L315.487 133.936L301.355 150.256L313.193 159.036L326.903 142.32Z" fill="#8529BA"/>
<path fill-rule="evenodd" clip-rule="evenodd" d="M450.899 90.1961L490.262 118.934L508.56 95.2583L470.357 66.731L454.326 85.3976L450.899 90.1961Z" fill="#8529BA"/>
<path fill-rule="evenodd" clip-rule="evenodd" d="M441.305 103.695L454.329 85.3971L404.314 49.9093L402.231 48.512L393.504 54.7869L388.838 64.0412L392.661 66.8622L441.305 103.695Z" fill="#5E1675"/>
<path fill-rule="evenodd" clip-rule="evenodd" d="M392.658 66.8627L389.6 64.5954L388.835 64.0417L393.502 54.7874L402.229 48.5125L404.312 49.9098L413.856 28.0002L392.5 50.4899L373.754 82.8929L392.658 66.8627Z" fill="#491772"/>
<path fill-rule="evenodd" clip-rule="evenodd" d="M352.505 21.5404L392.501 50.4896L413.857 28L372.964 0L352.505 21.5404Z" fill="#8529BA"/>
<path fill-rule="evenodd" clip-rule="evenodd" d="M392.5 50.4895L352.504 21.5403L333.231 54.6025L339.901 59.9019L347.969 50.6213L362.048 60.1392L362.576 64.5685L357.197 71.6344L373.754 82.8925L392.5 50.4895Z" fill="#5E1675"/>
<path fill-rule="evenodd" clip-rule="evenodd" d="M338.952 60.983L353.4 71.2918L354.798 70.0263L362.576 64.5686L362.048 60.1393L347.969 50.6213L338.952 60.983Z" fill="#8529BA"/>
<path fill-rule="evenodd" clip-rule="evenodd" d="M432.471 190.094L421.055 203.593L429.36 209.13V216.802L442.306 198.399L432.471 190.094Z" fill="#5E1675"/>
<path fill-rule="evenodd" clip-rule="evenodd" d="M432.472 190.094L442.306 198.399L462.739 176.595L450.901 168.264L432.472 190.094Z" fill="#8529BA"/>
<path fill-rule="evenodd" clip-rule="evenodd" d="M462.737 176.595L442.304 198.399L429.359 216.802V217.778L450.899 195.974L462.737 176.595Z" fill="#491772"/>
<path fill-rule="evenodd" clip-rule="evenodd" d="M432.47 190.094L450.899 168.264L461.208 149.07L441.302 174.354L419.023 206.019L421.054 203.593L432.47 190.094Z" fill="#491772"/>
<path fill-rule="evenodd" clip-rule="evenodd" d="M308.632 183.45L306.523 182L298.851 190.833L292.681 201.563L294.184 202.539L299.747 198.109L296.32 203.778L312.218 214.324L344.252 235.443L351.186 225.45L357.751 217.33L308.632 183.45Z" fill="#8529BA"/>
<path fill-rule="evenodd" clip-rule="evenodd" d="M308.634 183.45L318.257 162.806L295.662 187.3L276.785 218.226L294.186 202.539L292.683 201.563L298.852 190.833L306.525 182L308.634 183.45Z" fill="#491772"/>
<path fill-rule="evenodd" clip-rule="evenodd" d="M351.186 225.45L298.851 190.832L292.681 201.563L310.267 213.058L344.331 235.521L351.186 225.45Z" fill="#5E1675"/>
<path fill-rule="evenodd" clip-rule="evenodd" d="M330.885 255.348L371.25 286.275L383.457 267.898L383.325 245.224L354.007 221.311L330.885 255.348Z" fill="#5E1675"/>
<path fill-rule="evenodd" clip-rule="evenodd" d="M341.274 105.093L396.563 145.827L398.408 143.059L404.499 136.125L351.451 95.6274L341.274 105.093Z" fill="#8529BA"/>
<path fill-rule="evenodd" clip-rule="evenodd" d="M396.561 145.827L341.272 105.092L335.077 115.322L340.877 119.699L357.013 131.8L389.706 156.32L396.561 145.827Z" fill="#5E1675"/>
<path fill-rule="evenodd" clip-rule="evenodd" d="M399.804 59.3222L448.343 93.808L454.328 85.3975L404.313 49.9098L401.439 47.5896L393.503 54.7874L399.804 59.3222Z" fill="#8529BA"/>
<path fill-rule="evenodd" clip-rule="evenodd" d="M206.36 619.718H128.688L128.873 684.023H206.36V619.718Z" fill="#5E1675"/>
<path fill-rule="evenodd" clip-rule="evenodd" d="M478.426 625.808L449.846 625.913V704.719L477.872 709.65L478.426 625.808Z" fill="#5E1675"/>
<path fill-rule="evenodd" clip-rule="evenodd" d="M449.847 684.497V625.913H438.299V685.367L449.847 684.497Z" fill="#5E1675"/>
<path fill-rule="evenodd" clip-rule="evenodd" d="M478.425 625.834L477.872 709.649L511.487 703.111L511.329 625.702L478.425 625.834Z" fill="#5E1675"/>
<path fill-rule="evenodd" clip-rule="evenodd" d="M493.19 492.584V473.284L473.364 471.992L473.944 493.876L493.19 492.584Z" fill="#8529BA"/>
<path fill-rule="evenodd" clip-rule="evenodd" d="M429.095 325.744H398.037L405.261 344.622L437.585 344.305L429.095 325.744Z" fill="#8529BA"/>
<path fill-rule="evenodd" clip-rule="evenodd" d="M394.557 616.264L289.148 614.84V596.463H394.557V616.264Z" fill="#5E1675"/>
<path fill-rule="evenodd" clip-rule="evenodd" d="M394.556 644.237L220.308 639.782V618.531L394.556 621.695V644.237Z" fill="#5E1675"/>
<path fill-rule="evenodd" clip-rule="evenodd" d="M394.557 675.401L177.781 669.073V645.16L394.557 650.934V675.401Z" fill="#5E1675"/>
<path fill-rule="evenodd" clip-rule="evenodd" d="M394.558 675.401L438.298 670.128V647.586L394.479 652.279L394.558 675.401Z" fill="#5E1675"/>
<path fill-rule="evenodd" clip-rule="evenodd" d="M405.895 713.341L92.9121 703.612V678.301L405.895 681.861V713.341Z" fill="#5E1675"/>
<path fill-rule="evenodd" clip-rule="evenodd" d="M405.896 713.341L449.846 701.714V680.595L405.896 682.283V713.341Z" fill="#5E1675"/>
<path fill-rule="evenodd" clip-rule="evenodd" d="M417.627 764.489L8.04102 739.574V713.051L417.627 727.235V764.489Z" fill="#5E1675"/>
<path fill-rule="evenodd" clip-rule="evenodd" d="M417.628 764.489L480.879 736.648L511.542 728.843L511.463 709.623L477.873 709.649L417.628 727.762V764.489Z" fill="#5E1675"/>
<path fill-rule="evenodd" clip-rule="evenodd" d="M511.541 728.844L613.443 719.51L613.522 697.706L511.488 703.111L511.541 728.844Z" fill="#5E1675"/>
<path fill-rule="evenodd" clip-rule="evenodd" d="M511.46 691.273L567.856 686.975V668.098L511.408 672.527L511.46 691.273Z" fill="#5E1675"/>
<path fill-rule="evenodd" clip-rule="evenodd" d="M511.409 664.09L533.398 662.297V644.158L511.356 645.344L511.409 664.09Z" fill="#5E1675"/>
<path fill-rule="evenodd" clip-rule="evenodd" d="M394.556 603.054L284.138 601.42V596.463H394.556V603.054Z" fill="#491772"/>
<path fill-rule="evenodd" clip-rule="evenodd" d="M394.557 626.862L213.981 624.41V618.531L394.557 621.695V626.862Z" fill="#5E1675"/>
<path fill-rule="evenodd" clip-rule="evenodd" d="M398.645 658.501L169.899 652.489V645.16L398.513 650.96L398.645 658.501Z" fill="#5E1675"/>
<path fill-rule="evenodd" clip-rule="evenodd" d="M398.644 658.5L438.298 654.124V647.585L398.513 650.96L398.644 658.5Z" fill="#8529BA"/>
<path fill-rule="evenodd" clip-rule="evenodd" d="M408.321 695.281L85.1084 685.631V678.301L408.189 687.292L408.321 695.281Z" fill="#5E1675"/>
<path fill-rule="evenodd" clip-rule="evenodd" d="M408.321 695.28L451.165 687.766V680.647L408.189 687.292L408.321 695.28Z" fill="#8529BA"/>
<path fill-rule="evenodd" clip-rule="evenodd" d="M421.556 737.096L0 720.275V712.972L421.318 727.499L421.556 737.096Z" fill="#5E1675"/>
<path fill-rule="evenodd" clip-rule="evenodd" d="M421.555 737.096L478.609 717.006L511.461 709.623L511.487 703.111L477.871 709.65L421.317 727.499L421.555 737.096Z" fill="#8529BA"/>
<path fill-rule="evenodd" clip-rule="evenodd" d="M511.462 709.623L618.057 700.527V694.674L511.488 703.111L511.462 709.623Z" fill="#8529BA"/>
<path fill-rule="evenodd" clip-rule="evenodd" d="M511.382 677.22L571.627 672.184V667.808L511.408 672.527L511.382 677.22Z" fill="#8529BA"/>
<path fill-rule="evenodd" clip-rule="evenodd" d="M511.331 650.064L537.907 647.77V643.394L511.357 645.345L511.331 650.064Z" fill="#8529BA"/>
<path fill-rule="evenodd" clip-rule="evenodd" d="M0 712.972L421.318 727.499L405.895 713.341L92.9115 703.612V701.186L0 712.972Z" fill="#491772"/>
<path fill-rule="evenodd" clip-rule="evenodd" d="M477.873 709.65L421.319 727.499L405.896 713.341L449.846 701.714L477.873 709.65Z" fill="#491772"/>
<path fill-rule="evenodd" clip-rule="evenodd" d="M618.057 694.674L511.488 703.111L511.462 691.273L560.317 687.635V687.556L567.857 686.975V684.84L618.057 694.674Z" fill="#491772"/>
<path fill-rule="evenodd" clip-rule="evenodd" d="M571.626 667.808L511.408 672.527V663.774V664.09L533.396 662.297V660.794L571.626 667.808Z" fill="#491772"/>
<path fill-rule="evenodd" clip-rule="evenodd" d="M537.907 643.394L511.357 645.476L511.331 638.542L537.907 643.394Z" fill="#491772"/>
<path fill-rule="evenodd" clip-rule="evenodd" d="M408.189 687.292L394.558 675.401L177.782 669.073V668.15L85.1084 678.301L408.189 687.292Z" fill="#491772"/>
<path fill-rule="evenodd" clip-rule="evenodd" d="M408.189 687.292L394.558 675.401L430.072 671.13L438.298 670.128V677.009L451.164 680.648L408.189 687.292Z" fill="#491772"/>
<path fill-rule="evenodd" clip-rule="evenodd" d="M394.452 621.695L213.981 618.531L289.149 614.84L394.557 616.263L394.452 621.695Z" fill="#491772"/>
<path fill-rule="evenodd" clip-rule="evenodd" d="M407.291 650.222L409.321 501.206L383.14 500.52L382.006 621.721V645.081L407.291 650.222Z" fill="#5E1675"/>
<path fill-rule="evenodd" clip-rule="evenodd" d="M169.899 645.16L398.513 650.961L407.293 650.222L382.008 645.081V643.921L220.309 639.782V638.806L169.899 645.16Z" fill="#491772"/>
<path fill-rule="evenodd" clip-rule="evenodd" d="M353.084 71.0546L355.985 73.2166L362.576 64.5688L362.049 60.1394L353.084 71.0546Z" fill="url(#paint1_linear_228_18)"/>
<path fill-rule="evenodd" clip-rule="evenodd" d="M450.742 141.502L452.93 143.058L458.282 136.546L460.945 129.032L450.742 141.502Z" fill="#491772"/>
<path fill-rule="evenodd" clip-rule="evenodd" d="M313.194 159.036L315.066 160.433L323.661 150.124L326.904 142.32L313.194 159.036Z" fill="url(#paint2_linear_228_18)"/>
<path fill-rule="evenodd" clip-rule="evenodd" d="M287.382 168.501L296.558 161.145L314.354 132.802L311.48 130.667L287.382 168.501Z" fill="#491772"/>
<path fill-rule="evenodd" clip-rule="evenodd" d="M490.264 118.934L468.196 150.546L492.452 120.49L508.562 95.2581L490.264 118.934Z" fill="#491772"/>
<path fill-rule="evenodd" clip-rule="evenodd" d="M383.456 267.898L371.249 286.275L383.456 270.139V267.898Z" fill="url(#paint3_linear_228_18)"/>
<path fill-rule="evenodd" clip-rule="evenodd" d="M269.849 501.047H312.271L311.849 199.744L298.851 190.832L285.774 205.36L285.985 325.348L268.215 340.561L267.714 415.491L269.876 509.141L269.849 501.047Z" fill="#5E1675"/>
<path fill-rule="evenodd" clip-rule="evenodd" d="M383.247 229.51L383.168 209.736L374.916 221.97L383.247 229.51Z" fill="#5E1675"/>
<path fill-rule="evenodd" clip-rule="evenodd" d="M355.063 130.324L345.888 137.495L331.624 161.54L348.682 144.772L357.014 131.8L355.063 130.324Z" fill="url(#paint4_linear_228_18)"/>
<path fill-rule="evenodd" clip-rule="evenodd" d="M355.063 130.324L339.718 118.802L330.517 125.868L345.888 137.496L355.063 130.324Z" fill="#8529BA"/>
<path fill-rule="evenodd" clip-rule="evenodd" d="M346.729 140L382.876 166.708L387.49 160.38L353.558 134.569L346.729 140Z" fill="#8529BA"/>
<path fill-rule="evenodd" clip-rule="evenodd" d="M382.876 166.708L346.729 140L342.906 146.354L346.518 149.07L356.511 156.584L378.737 173.01L382.876 166.708Z" fill="#5E1675"/>
<defs>
<linearGradient id="paint0_linear_228_18" x1="369.246" y1="98.1055" x2="369.246" y2="156.32" gradientUnits="userSpaceOnUse">
<stop stop-color="#8529BA"/>
<stop offset="1" stop-color="#491772"/>
</linearGradient>
<linearGradient id="paint1_linear_228_18" x1="357.83" y1="60.1394" x2="357.83" y2="73.2166" gradientUnits="userSpaceOnUse">
<stop stop-color="#8529BA"/>
<stop offset="1" stop-color="#491772"/>
</linearGradient>
<linearGradient id="paint2_linear_228_18" x1="320.049" y1="142.32" x2="320.049" y2="160.433" gradientUnits="userSpaceOnUse">
<stop stop-color="#8529BA"/>
<stop offset="1" stop-color="#491772"/>
</linearGradient>
<linearGradient id="paint3_linear_228_18" x1="377.353" y1="267.898" x2="377.353" y2="286.275" gradientUnits="userSpaceOnUse">
<stop stop-color="#8529BA"/>
<stop offset="1" stop-color="#491772"/>
</linearGradient>
<linearGradient id="paint4_linear_228_18" x1="344.319" y1="130.324" x2="344.319" y2="161.54" gradientUnits="userSpaceOnUse">
<stop stop-color="#8529BA"/>
<stop offset="1" stop-color="#491772"/>
</linearGradient>
</defs>
</svg>
