<svg width="253" height="397" viewBox="0 0 253 397" fill="none" xmlns="http://www.w3.org/2000/svg">
<g filter="url(#filter0_d_558_314)">
<path d="M51.5181 243.753L60.8058 261.404L70.0606 279.014L99.216 274.241C102.61 278.189 106.031 281.902 109.657 285.543L102.683 314.252L136.269 335.461L159.238 316.757C164.004 318.554 168.86 320.014 173.896 321.288L182.165 349.748L221.906 351.312L232.326 323.622C237.352 322.843 242.449 321.692 247.467 320.213L268.739 340.752L303.936 322.266L299.149 293.06C299.474 292.798 307.22 285.903 310.454 282.559L339.16 289.639L360.461 256.051L341.666 233.084C343.466 228.258 344.986 223.406 346.194 218.532L374.748 210.155L376.312 170.415L348.567 159.977C347.709 154.911 346.596 149.886 345.188 144.982L365.688 123.592L348.147 90.224L318.023 93.1447C314.688 89.1549 311.17 85.4112 307.495 81.8765L314.698 53.1175L280.968 31.833L257.979 50.6519C253.249 48.8363 248.383 47.3119 243.366 46.0743L235.156 17.6182L195.347 16.078L184.912 43.7182C179.769 44.5814 174.821 45.6427 169.867 47.1118L148.5 26.5879L130.923 35.8834L113.307 45.1062L118.219 74.3508C114.122 77.5913 110.301 81.1156 106.794 84.799L78.0597 77.7105L56.8289 111.366L75.5778 134.288C73.795 139.058 72.2489 143.993 71.033 148.941L42.5354 157.138L40.977 196.957L68.6284 207.501C69.5609 212.424 70.6696 217.462 72.0351 222.505L51.5181 243.753ZM123.766 228.099C99.2342 181.428 117.244 123.597 164.216 98.9771C211.003 74.3145 268.832 92.4302 293.255 139.158C317.884 185.859 300.063 243.764 253.311 268.362C206.33 292.964 148.521 274.93 123.766 228.099Z" fill="url(#paint0_linear_558_314)"/>
</g>
<defs>
<filter id="filter0_d_558_314" x="21.9771" y="5.07788" width="391.335" height="391.234" filterUnits="userSpaceOnUse" color-interpolation-filters="sRGB">
<feFlood flood-opacity="0" result="BackgroundImageFix"/>
<feColorMatrix in="SourceAlpha" type="matrix" values="0 0 0 0 0 0 0 0 0 0 0 0 0 0 0 0 0 0 127 0" result="hardAlpha"/>
<feOffset dx="9" dy="17"/>
<feGaussianBlur stdDeviation="14"/>
<feComposite in2="hardAlpha" operator="out"/>
<feColorMatrix type="matrix" values="0 0 0 0 0 0 0 0 0 0 0 0 0 0 0 0 0 0 0.25 0"/>
<feBlend mode="normal" in2="BackgroundImageFix" result="effect1_dropShadow_558_314"/>
<feBlend mode="normal" in="SourceGraphic" in2="effect1_dropShadow_558_314" result="shape"/>
</filter>
<linearGradient id="paint0_linear_558_314" x1="183.435" y1="396.383" x2="387.218" y2="205.692" gradientUnits="userSpaceOnUse">
<stop stop-color="#B22635"/>
<stop offset="1" stop-color="#EA5571"/>
</linearGradient>
</defs>
</svg>
