<svg width="197" height="147" viewBox="0 0 197 147" fill="none" xmlns="http://www.w3.org/2000/svg">
<g filter="url(#filter0_d_558_310)">
<path d="M45.1843 89.8637L59.7954 95.8393C28.0001 75.7798 21.4992 59.9966 21.4992 59.9966L35.311 69.1731C10.3297 48.0428 10.149 31.0034 10.149 31.0034C11.565 34.9069 20.977 42.9392 20.977 42.9392C-3.4863 12.8196 18.2974 1.33914 18.2974 1.33914L18.9751 6.53105C20.9674 4.77375 20.7923 1.13075 20.7923 1.13075C33.0158 -4.08153 44.551 12.1152 44.551 12.1152L40.9802 27.0764L46.2659 19.1207C48.5945 28.3999 56.5751 29.9701 56.5751 29.9701C55.1574 43.6882 66.0761 60.0149 66.0761 60.0149C60.6164 50.2534 62.2199 38.2533 62.2199 38.2533C87.1316 69.4715 116.379 73.2584 116.379 73.2584C118.788 83.2143 132.865 91.3241 132.865 91.3241L126.282 79.6602C126.282 79.6602 132.423 81.6059 141.88 79.3568C151.338 77.1078 157.639 83.6056 157.639 83.6056C157.639 83.6056 149.002 81.9542 146.584 87.4603C144.166 92.9665 153.126 99.9845 158.408 101.36C163.688 102.734 184.279 101.305 184.279 101.305L187.469 105.026C187.469 105.026 180.326 104.991 167.675 104.854C155.026 104.714 161.834 122.038 132.479 126.267C103.124 130.497 77.0969 115.338 77.0969 115.338C82.1336 114.152 92.022 110.055 92.022 110.055C52.1677 116.109 45.1827 89.8661 45.1827 89.8661L45.1843 89.8637ZM84.5407 95.747C114.377 108.371 151.465 105.28 151.465 105.28L146.679 102.1C146.679 102.1 141.029 103.411 111.066 99.7721C81.1021 96.1292 74.8554 63.9819 74.8554 63.9819C71.9029 75.6184 88.1628 93.889 88.1628 93.889C40.6482 72.7191 28.5103 34.2556 28.5103 34.2556C35.252 56.8691 54.7046 83.1234 84.5383 95.7455L84.5407 95.747Z" fill="url(#paint0_linear_558_310)"/>
</g>
<defs>
<filter id="filter0_d_558_310" x="0.363525" y="0.097168" width="196.106" height="145.915" filterUnits="userSpaceOnUse" color-interpolation-filters="sRGB">
<feFlood flood-opacity="0" result="BackgroundImageFix"/>
<feColorMatrix in="SourceAlpha" type="matrix" values="0 0 0 0 0 0 0 0 0 0 0 0 0 0 0 0 0 0 127 0" result="hardAlpha"/>
<feOffset dy="10"/>
<feGaussianBlur stdDeviation="4.5"/>
<feComposite in2="hardAlpha" operator="out"/>
<feColorMatrix type="matrix" values="0 0 0 0 0 0 0 0 0 0 0 0 0 0 0 0 0 0 0.25 0"/>
<feBlend mode="normal" in2="BackgroundImageFix" result="effect1_dropShadow_558_310"/>
<feBlend mode="normal" in="SourceGraphic" in2="effect1_dropShadow_558_310" result="shape"/>
</filter>
<linearGradient id="paint0_linear_558_310" x1="-14.4774" y1="42.0967" x2="149.502" y2="103.106" gradientUnits="userSpaceOnUse">
<stop stop-color="#FFD23F"/>
<stop offset="1" stop-color="#FFA514"/>
</linearGradient>
</defs>
</svg>
