<svg width="376" height="379" viewBox="0 0 376 379" fill="none" xmlns="http://www.w3.org/2000/svg">
<g filter="url(#filter0_d_236_100)">
<path d="M-14.621 256.369L-8.55256 275.369L-2.50934 294.322L27.0316 294.705C29.6852 299.184 32.4069 303.437 35.343 307.654L23.4706 334.708L52.8453 361.447L78.7228 347.034C83.1025 349.634 87.6295 351.919 92.3661 354.051L95.548 383.516L134.407 391.984L149.495 366.535C154.58 366.644 159.8 366.399 164.999 365.817L182.364 389.75L220.245 377.683L220.622 348.09C220.988 347.888 229.818 342.45 233.585 339.721L260.618 351.696L287.448 322.336L272.944 296.444C275.557 292.006 277.9 287.493 279.939 282.904L309.516 279.633L317.985 240.774L292.483 225.659C292.522 220.522 292.302 215.38 291.77 210.305L315.686 192.816L304.23 156.901L274.058 154.526C271.47 150.016 268.658 145.716 265.656 141.595L277.762 114.532L248.259 87.6936L222.341 102.217C218 99.6044 213.474 97.255 208.75 95.1617L205.626 65.7101L166.696 57.2538L151.602 82.6516C146.387 82.605 141.33 82.7875 136.196 83.3706L118.733 59.436L99.8048 65.525L80.8517 71.5358L80.5901 101.189C75.9909 103.666 71.6136 106.47 67.5182 109.485L40.4598 97.4961L13.6871 126.935L28.153 152.775C25.566 157.161 23.1832 161.751 21.1233 166.411L-8.3669 169.515L-16.8428 208.452L8.54693 223.655C8.60706 228.665 8.8205 233.82 9.2859 239.023L-14.621 256.369ZM59.2499 253.55C43.2293 203.317 71.0453 149.511 121.59 133.456C171.96 117.328 225.745 145.247 241.648 195.517C257.759 245.796 230.116 299.709 179.792 315.78C129.241 331.815 75.4619 303.98 59.2499 253.55Z" fill="url(#paint0_linear_236_100)"/>
</g>
<defs>
<filter id="filter0_d_236_100" x="-35.8428" y="46.2538" width="390.827" height="390.731" filterUnits="userSpaceOnUse" color-interpolation-filters="sRGB">
<feFlood flood-opacity="0" result="BackgroundImageFix"/>
<feColorMatrix in="SourceAlpha" type="matrix" values="0 0 0 0 0 0 0 0 0 0 0 0 0 0 0 0 0 0 127 0" result="hardAlpha"/>
<feOffset dx="9" dy="17"/>
<feGaussianBlur stdDeviation="14"/>
<feComposite in2="hardAlpha" operator="out"/>
<feColorMatrix type="matrix" values="0 0 0 0 0 0 0 0 0 0 0 0 0 0 0 0 0 0 0.25 0"/>
<feBlend mode="normal" in2="BackgroundImageFix" result="effect1_dropShadow_236_100"/>
<feBlend mode="normal" in="SourceGraphic" in2="effect1_dropShadow_236_100" result="shape"/>
</filter>
<linearGradient id="paint0_linear_236_100" x1="46.1638" y1="405.543" x2="463.248" y2="247.861" gradientUnits="userSpaceOnUse">
<stop stop-color="#34144E"/>
<stop offset="1" stop-color="#8529BA"/>
</linearGradient>
</defs>
</svg>
