<svg width="185" height="220" viewBox="0 0 185 220" fill="none" xmlns="http://www.w3.org/2000/svg">
<g filter="url(#filter0_d_558_311)">
<path d="M94.4364 146.118C95.0194 144.109 97.6564 134.814 98.9021 130.418L99.2825 128.985C98.0898 126.742 95.0108 120.748 92.2359 114.714C89.461 108.68 85.6728 98.3992 84.1256 94.013C82.7129 93.5394 78.7427 92.0308 74.1641 89.785C68.4408 86.9777 57.9994 63.1674 56.7291 56.647C55.4588 50.1267 63.8712 43.4074 66.3751 41.057C68.879 38.7066 67.7329 37.5295 67.0161 36.3554C66.2992 35.1813 61.9168 37.3262 57.2857 39.055C53.5808 40.438 46.5892 41.6195 43.5564 42.0374C44.8027 39.6092 48.0476 33.8761 51.0573 30.369C54.0669 26.8619 61.1941 23.3164 64.3815 21.9821C64.1189 21.4574 63.6761 20.0503 64.0062 18.6201C64.4188 16.8323 70.1839 7.72678 73.6849 4.64341C77.186 1.56004 82.918 1.11164 85.5839 0.923045C88.2498 0.734449 104.128 5.64 108.582 7.83171C113.037 10.0234 116.302 15.0778 119.737 19.0383C123.172 22.9987 128.905 24.5186 134.147 26.3162C139.35 28.1007 143.611 37.1698 146.697 43.7365L146.765 43.8817C149.856 50.4592 159.51 62.4249 162.045 68.0218C164.58 73.6186 165.551 82.6527 166.368 84.3011C167.185 85.9495 169.347 85.787 175.518 86.0224C181.69 86.2578 181.944 94.1178 181.102 95.9027C180.26 97.6877 174.05 98.6654 173.234 98.9853C172.417 99.3051 173.225 102.241 170.398 104.204C168.137 105.775 161.54 106.362 158.525 106.46C158.583 107.264 158.536 109.331 157.884 111.161C157.231 112.992 156.074 115.721 155.578 116.858L153.85 114.196C153.584 114.101 153.083 114.292 153.202 115.82C153.351 117.73 153.395 125.929 153.773 126.893L156.418 133.645C157.087 135.352 159.827 135.134 161.338 135.056C162.546 134.994 163.35 136.55 163.601 137.336C163.514 137.113 163.061 136.658 161.948 136.614C160.557 136.56 161.448 138.179 159.667 138.877C157.885 139.575 156.549 140.099 155.342 139.202C154.135 138.306 154.154 139.668 152.986 141.494C151.818 143.321 147.978 144.227 145.69 145.38C143.402 146.533 141.927 145.827 140.274 145.106C138.976 144.539 137.277 146.68 136.548 147.883C136.535 147.907 136.521 147.929 136.508 147.95C136.521 147.928 136.535 147.906 136.548 147.883C136.929 147.239 137.683 145.711 137.956 144.216C138.311 142.28 143.568 139.964 145.078 139.886C146.287 139.823 148.007 138.91 148.716 138.461C149.154 136.52 150.32 131.978 151.476 129.334C152.921 126.029 149.273 112.566 147.001 111.574C144.728 110.581 141.39 119.763 139.024 119.406C137.131 119.12 137.339 114.96 137.68 112.915C136.566 113.351 134.115 114.089 133.219 113.549C132.099 112.876 130.333 109.46 131.229 106.284C132.125 103.109 129.223 99.1963 126.292 99.1463C123.361 99.0962 123.45 103.255 120.904 105.28C118.867 106.899 115.27 107.145 113.726 107.065C113.289 107.407 112.304 108.375 111.858 109.508C111.3 110.925 118.046 113.503 117.156 113.852C116.265 114.201 109.08 112.908 109.313 113.501C109.545 114.095 114.036 119.439 112.997 119.846C111.958 120.253 105.789 115.652 105.941 117.133C106.093 118.614 106.775 122.541 107.395 124.78C108.016 127.018 104.366 130.16 103.104 130.654C101.843 131.149 97.3992 145.813 96.9575 147.527C96.5158 149.24 98.6435 151.83 98.9633 152.646C99.283 153.462 100.403 154.136 101.119 153.342C101.836 152.548 103.875 150.979 105.118 151.091C106.112 151.181 106.72 153.287 106.9 154.33C106.756 153.816 106.201 152.806 105.134 152.882C103.801 152.976 105.713 154.795 105.939 156.247C106.165 157.699 104.284 157.922 103.812 157.593C103.341 157.265 100.026 157.108 99.0584 157.915C98.0903 158.723 98.6655 161.065 97.4457 161.885C96.2259 162.705 95.7182 159.224 94.2337 159.806C92.7492 160.387 90.4041 165.329 88.6679 165.923C86.9316 166.518 85.7756 164.66 85.1818 164.893C84.588 165.125 83.8556 166.097 82.4614 166.472C81.0672 166.847 80.912 165.795 79.3143 165.651C78.0361 165.535 76.7058 167.443 76.2005 168.411C76.4025 167.762 76.9396 166.102 77.4711 164.661C78.1354 162.86 81.637 161.745 86.0813 161.288C90.5255 160.831 91.631 155.348 91.5012 152.831C91.3714 150.314 93.7077 148.629 94.4364 146.118Z" fill="url(#paint0_linear_558_311)"/>
</g>
<defs>
<filter id="filter0_d_558_311" x="0.556396" y="0.917725" width="183.896" height="218.494" filterUnits="userSpaceOnUse" color-interpolation-filters="sRGB">
<feFlood flood-opacity="0" result="BackgroundImageFix"/>
<feColorMatrix in="SourceAlpha" type="matrix" values="0 0 0 0 0 0 0 0 0 0 0 0 0 0 0 0 0 0 127 0" result="hardAlpha"/>
<feOffset dx="-20" dy="28"/>
<feGaussianBlur stdDeviation="11.5"/>
<feComposite in2="hardAlpha" operator="out"/>
<feColorMatrix type="matrix" values="0 0 0 0 0 0 0 0 0 0 0 0 0 0 0 0 0 0 0.25 0"/>
<feBlend mode="normal" in2="BackgroundImageFix" result="effect1_dropShadow_558_311"/>
<feBlend mode="normal" in="SourceGraphic" in2="effect1_dropShadow_558_311" result="shape"/>
</filter>
<linearGradient id="paint0_linear_558_311" x1="116.32" y1="-15.284" x2="153.38" y2="120.856" gradientUnits="userSpaceOnUse">
<stop stop-color="#FFD23F"/>
<stop offset="1" stop-color="#FFA514"/>
</linearGradient>
</defs>
</svg>
