<svg width="518" height="800" viewBox="0 0 518 800" fill="none" xmlns="http://www.w3.org/2000/svg">
<g filter="url(#filter0_d_583_811)">
<path fill-rule="evenodd" clip-rule="evenodd" d="M167.889 625.603H242.664V571.336V512.932H186.722H167.559L167.889 625.603Z" fill="#5E1675"/>
<path fill-rule="evenodd" clip-rule="evenodd" d="M242.665 512.933V571.337L303.811 519.152L301.729 428.995L237.995 487.551H186.724V512.933H242.665Z" fill="#5E1675"/>
<path fill-rule="evenodd" clip-rule="evenodd" d="M303.808 520.04V629.842H344.724L344.623 511.359H303.783L303.808 520.04Z" fill="#5E1675"/>
<path fill-rule="evenodd" clip-rule="evenodd" d="M439.882 420.162L438.055 511.359L465.949 561.108V618.496V631.568L471.787 631.543L472.067 506.333L472.117 484.784L439.882 420.162Z" fill="#5E1675"/>
<path fill-rule="evenodd" clip-rule="evenodd" d="M439.882 420.162L472.117 484.784L495.265 483.617L462.066 420.035L439.882 420.162Z" fill="#8529BA"/>
<path fill-rule="evenodd" clip-rule="evenodd" d="M505.774 504.075L505.267 504.1L500.267 504.455L499.708 483.388L472.118 484.784L499.708 483.388L472.118 484.784L472.067 506.333L471.788 631.543L504.582 631.467L505.774 504.075Z" fill="#5E1675"/>
<path fill-rule="evenodd" clip-rule="evenodd" d="M505.774 504.074L504.581 631.466L536.258 631.365L535.902 503.719L518.795 503.211L505.774 504.074Z" fill="#8529BA"/>
<path fill-rule="evenodd" clip-rule="evenodd" d="M438.056 511.359L436.102 654.97L465.951 652.432V561.108L438.056 511.359Z" fill="#5E1675"/>
<path fill-rule="evenodd" clip-rule="evenodd" d="M449.349 225L421.073 208.248L412.799 215.659L412.85 227.284L413.154 287.845L413.84 431.685L412.85 510.851L438.054 511.359L432.622 511.232L434.145 360.768L427.191 342.594V212.689H428.561L449.349 225Z" fill="#5E1675"/>
<path fill-rule="evenodd" clip-rule="evenodd" d="M465.696 426.964L465.264 360.464L434.146 360.768L432.623 511.233L438.055 511.334L439.882 420.137L462.092 420.01L465.696 426.964ZM457.091 342.595L457.32 238.655L457.345 230.33L449.35 225L428.562 212.69H427.191V342.595H457.091Z" fill="#8529BA"/>
<path fill-rule="evenodd" clip-rule="evenodd" d="M384.803 242.056L413.078 271.017L412.85 227.284L404.22 221.522L384.803 242.056Z" fill="#8529BA"/>
<path fill-rule="evenodd" clip-rule="evenodd" d="M310.461 239.087L328.635 209.314L288.734 177.713L271.246 208.578L310.461 239.087Z" fill="#5E1675"/>
<path fill-rule="evenodd" clip-rule="evenodd" d="M288.732 177.713L328.633 209.313L350.385 185.733L342.491 179.87L334.115 173.652L321.297 190.251L306.398 179.87L319.165 162.534L311.957 157.179L288.732 177.713Z" fill="#8529BA"/>
<path fill-rule="evenodd" clip-rule="evenodd" d="M306.399 179.87L321.324 191.114L343.863 154.793L328.913 143.65L306.399 179.87Z" fill="#5E1675"/>
<path fill-rule="evenodd" clip-rule="evenodd" d="M339.598 168.043L363.254 184.516L376.985 161.367L387.697 155.885L371.046 143.372L350.131 159.464L346.629 156.849L339.598 168.043Z" fill="#5E1675"/>
<path fill-rule="evenodd" clip-rule="evenodd" d="M343.862 154.793L350.132 159.463L369.955 126.035L330.841 96.5161L312.566 131.467L328.912 143.65L343.862 154.793Z" fill="#5E1675"/>
<path fill-rule="evenodd" clip-rule="evenodd" d="M330.842 96.516L369.956 126.035L392.698 103.699L384.22 97.6328L369.219 86.9217L353.635 75.7789L330.842 96.516Z" fill="#8529BA"/>
<path fill-rule="evenodd" clip-rule="evenodd" d="M392.698 103.699L369.956 126.035L350.133 159.463L371.048 143.371L366.58 140.021L372.545 130.172L382.901 123.446L385.49 125.325L392.698 103.699Z" fill="#491772"/>
<path fill-rule="evenodd" clip-rule="evenodd" d="M385.489 125.325L382.9 123.446L372.544 130.173L366.579 140.021L372.163 144.234L391.758 158.905L419.17 179.49L427.546 166.723L432.369 159.362L385.489 125.325Z" fill="url(#paint0_linear_583_811)"/>
<path fill-rule="evenodd" clip-rule="evenodd" d="M447.981 143.498L427.549 166.722L468.845 196.851L488.009 172.509L476.663 164.285L463.058 154.412L447.981 143.498Z" fill="#8529BA"/>
<path fill-rule="evenodd" clip-rule="evenodd" d="M427.546 166.723L419.17 179.49L406.986 198.044L447.394 227.335L468.842 196.851L427.546 166.723Z" fill="#5E1675"/>
<path fill-rule="evenodd" clip-rule="evenodd" d="M473.845 143.295L487.754 153.219L478.439 162.509L494.734 173.931L515.979 143.498L478.084 115.832L468.844 128.827L456.661 147.255L465.164 153.499L473.845 143.295Z" fill="#5E1675"/>
<path fill-rule="evenodd" clip-rule="evenodd" d="M487.753 153.219L473.843 143.295L463.868 155.022L477.93 165.225L487.753 153.219Z" fill="#5E1675"/>
<path fill-rule="evenodd" clip-rule="evenodd" d="M358.709 166.012L347.719 157.941L334.114 173.652L345.511 182.104L358.709 166.012Z" fill="#8529BA"/>
<path fill-rule="evenodd" clip-rule="evenodd" d="M478.082 115.832L515.977 143.498L533.592 120.705L496.814 93.2419L481.382 111.212L478.082 115.832Z" fill="#8529BA"/>
<path fill-rule="evenodd" clip-rule="evenodd" d="M468.844 128.827L481.383 111.212L433.233 77.0479L431.228 75.7026L422.826 81.7436L418.334 90.6527L422.014 93.3685L468.844 128.827Z" fill="#5E1675"/>
<path fill-rule="evenodd" clip-rule="evenodd" d="M422.013 93.3689L419.069 91.1861L418.333 90.6531L422.826 81.744L431.227 75.7031L433.232 77.0483L442.42 55.9559L421.861 77.6068L403.814 108.801L422.013 93.3689Z" fill="#491772"/>
<path fill-rule="evenodd" clip-rule="evenodd" d="M383.357 49.737L421.862 77.6065L442.421 55.9556L403.054 29L383.357 49.737Z" fill="#8529BA"/>
<path fill-rule="evenodd" clip-rule="evenodd" d="M421.861 77.6061L383.357 49.7367L364.803 81.5657L371.224 86.6675L378.991 77.733L392.545 86.8959L393.053 91.1601L387.875 97.9624L403.815 108.801L421.861 77.6061Z" fill="#5E1675"/>
<path fill-rule="evenodd" clip-rule="evenodd" d="M370.31 87.7085L384.219 97.6328L385.564 96.4144L393.052 91.1604L392.544 86.8962L378.99 77.7333L370.31 87.7085Z" fill="#8529BA"/>
<path fill-rule="evenodd" clip-rule="evenodd" d="M460.34 212.004L449.35 224.999L457.345 230.33V237.716L469.807 219.999L460.34 212.004Z" fill="#5E1675"/>
<path fill-rule="evenodd" clip-rule="evenodd" d="M460.341 212.004L469.808 219.999L489.479 199.008L478.083 190.988L460.341 212.004Z" fill="#8529BA"/>
<path fill-rule="evenodd" clip-rule="evenodd" d="M489.477 199.008L469.806 219.999L457.344 237.716V238.655L478.081 217.664L489.477 199.008Z" fill="#491772"/>
<path fill-rule="evenodd" clip-rule="evenodd" d="M460.339 212.004L478.081 190.988L488.006 172.51L468.842 196.851L447.395 227.335L449.349 224.999L460.339 212.004Z" fill="#491772"/>
<path fill-rule="evenodd" clip-rule="evenodd" d="M341.121 205.608L339.09 204.212L331.704 212.715L325.765 223.045L327.211 223.984L332.567 219.72L329.267 225.177L344.573 235.33L375.412 255.661L382.087 246.041L388.407 238.224L341.121 205.608Z" fill="#8529BA"/>
<path fill-rule="evenodd" clip-rule="evenodd" d="M341.122 205.608L350.387 185.734L328.634 209.314L310.461 239.087L327.213 223.984L325.766 223.045L331.706 212.715L339.092 204.212L341.122 205.608Z" fill="#491772"/>
<path fill-rule="evenodd" clip-rule="evenodd" d="M382.087 246.041L331.704 212.714L325.765 223.045L342.694 234.111L375.488 255.737L382.087 246.041Z" fill="#5E1675"/>
<path fill-rule="evenodd" clip-rule="evenodd" d="M362.544 274.824L401.404 304.597L413.156 286.906L413.029 265.078L384.804 242.056L362.544 274.824Z" fill="#5E1675"/>
<path fill-rule="evenodd" clip-rule="evenodd" d="M372.546 130.173L425.772 169.388L427.549 166.723L433.412 160.047L382.343 121.061L372.546 130.173Z" fill="#8529BA"/>
<path fill-rule="evenodd" clip-rule="evenodd" d="M425.77 169.388L372.544 130.172L366.579 140.021L372.163 144.234L387.697 155.884L419.17 179.49L425.77 169.388Z" fill="#5E1675"/>
<path fill-rule="evenodd" clip-rule="evenodd" d="M428.892 86.1096L475.62 119.309L481.381 111.212L433.232 77.0482L430.465 74.8146L422.825 81.7439L428.892 86.1096Z" fill="#8529BA"/>
<path fill-rule="evenodd" clip-rule="evenodd" d="M242.663 625.603H167.888L168.065 687.51H242.663V625.603Z" fill="#5E1675"/>
<path fill-rule="evenodd" clip-rule="evenodd" d="M504.582 631.467L477.068 631.568V707.435L504.049 712.181L504.582 631.467Z" fill="#5E1675"/>
<path fill-rule="evenodd" clip-rule="evenodd" d="M477.069 687.967V631.568H465.952V688.804L477.069 687.967Z" fill="#5E1675"/>
<path fill-rule="evenodd" clip-rule="evenodd" d="M504.582 631.492L504.049 712.181L536.411 705.886L536.259 631.365L504.582 631.492Z" fill="#5E1675"/>
<path fill-rule="evenodd" clip-rule="evenodd" d="M518.795 503.211V484.632L499.708 483.388L500.266 504.455L518.795 503.211Z" fill="#8529BA"/>
<path fill-rule="evenodd" clip-rule="evenodd" d="M457.091 342.594H427.191L434.146 360.768L465.264 360.463L457.091 342.594Z" fill="#8529BA"/>
<path fill-rule="evenodd" clip-rule="evenodd" d="M423.841 622.278L322.364 620.907V603.216H423.841V622.278Z" fill="#5E1675"/>
<path fill-rule="evenodd" clip-rule="evenodd" d="M423.84 649.209L256.091 644.919V624.461L423.84 627.507V649.209Z" fill="#5E1675"/>
<path fill-rule="evenodd" clip-rule="evenodd" d="M423.84 679.21L215.149 673.118V650.097L423.84 655.655V679.21Z" fill="#5E1675"/>
<path fill-rule="evenodd" clip-rule="evenodd" d="M423.841 679.211L465.949 674.134V652.432L423.765 656.951L423.841 679.211Z" fill="#5E1675"/>
<path fill-rule="evenodd" clip-rule="evenodd" d="M434.757 715.735L133.447 706.369V682.002L434.757 685.429V715.735Z" fill="#5E1675"/>
<path fill-rule="evenodd" clip-rule="evenodd" d="M434.756 715.735L477.068 704.541V684.211L434.756 685.835V715.735Z" fill="#5E1675"/>
<path fill-rule="evenodd" clip-rule="evenodd" d="M446.05 764.975L51.7412 740.989V715.455L446.05 729.111V764.975Z" fill="#5E1675"/>
<path fill-rule="evenodd" clip-rule="evenodd" d="M446.051 764.975L506.942 738.172L536.461 730.659L536.385 712.156L504.049 712.181L446.051 729.618V764.975Z" fill="#5E1675"/>
<path fill-rule="evenodd" clip-rule="evenodd" d="M423.841 609.562L317.541 607.988V603.216H423.841V609.562Z" fill="#491772"/>
<path fill-rule="evenodd" clip-rule="evenodd" d="M423.842 632.482L250.001 630.121V624.461L423.842 627.507V632.482Z" fill="#5E1675"/>
<path fill-rule="evenodd" clip-rule="evenodd" d="M427.777 662.94L207.562 657.153V650.097L427.65 655.681L427.777 662.94Z" fill="#5E1675"/>
<path fill-rule="evenodd" clip-rule="evenodd" d="M427.776 662.94L465.951 658.727V652.432L427.649 655.681L427.776 662.94Z" fill="#8529BA"/>
<path fill-rule="evenodd" clip-rule="evenodd" d="M437.092 698.348L125.935 689.058V682.002L436.965 690.657L437.092 698.348Z" fill="#5E1675"/>
<path fill-rule="evenodd" clip-rule="evenodd" d="M437.09 698.348L478.335 691.114V684.261L436.963 690.657L437.09 698.348Z" fill="#8529BA"/>
<path fill-rule="evenodd" clip-rule="evenodd" d="M449.832 738.604L44 722.41V715.379L449.604 729.365L449.832 738.604Z" fill="#5E1675"/>
<path fill-rule="evenodd" clip-rule="evenodd" d="M449.831 738.604L504.758 719.263L536.384 712.156L536.409 705.887L504.047 712.181L449.603 729.365L449.831 738.604Z" fill="#8529BA"/>
<path fill-rule="evenodd" clip-rule="evenodd" d="M44 715.379L449.604 729.365L434.756 715.735L133.446 706.369V704.034L44 715.379Z" fill="#491772"/>
<path fill-rule="evenodd" clip-rule="evenodd" d="M504.049 712.181L449.604 729.365L434.756 715.734L477.068 704.541L504.049 712.181Z" fill="#491772"/>
<path fill-rule="evenodd" clip-rule="evenodd" d="M436.965 690.657L423.843 679.21L215.152 673.118V672.23L125.935 682.002L436.965 690.657Z" fill="#491772"/>
<path fill-rule="evenodd" clip-rule="evenodd" d="M436.963 690.657L423.841 679.21L458.03 675.098L465.949 674.133V680.758L478.336 684.261L436.963 690.657Z" fill="#491772"/>
<path fill-rule="evenodd" clip-rule="evenodd" d="M423.74 627.507L250.001 624.461L322.365 620.907L423.842 622.278L423.74 627.507Z" fill="#491772"/>
<path fill-rule="evenodd" clip-rule="evenodd" d="M436.1 654.97L438.054 511.512L412.85 510.852L411.759 627.532V650.021L436.1 654.97Z" fill="#5E1675"/>
<path fill-rule="evenodd" clip-rule="evenodd" d="M207.562 650.097L427.65 655.681L436.102 654.97L411.761 650.021V648.904L256.093 644.919V643.98L207.562 650.097Z" fill="#491772"/>
<path fill-rule="evenodd" clip-rule="evenodd" d="M383.915 97.4045L386.707 99.4858L393.052 91.1605L392.545 86.8964L383.915 97.4045Z" fill="url(#paint1_linear_583_811)"/>
<path fill-rule="evenodd" clip-rule="evenodd" d="M477.93 165.225L480.036 166.723L485.189 160.453L487.752 153.219L477.93 165.225Z" fill="#491772"/>
<path fill-rule="evenodd" clip-rule="evenodd" d="M345.512 182.104L347.314 183.449L355.588 173.525L358.71 166.012L345.512 182.104Z" fill="url(#paint2_linear_583_811)"/>
<path fill-rule="evenodd" clip-rule="evenodd" d="M320.663 191.216L329.496 184.135L346.629 156.849L343.862 154.793L320.663 191.216Z" fill="#491772"/>
<path fill-rule="evenodd" clip-rule="evenodd" d="M515.978 143.498L494.733 173.931L518.085 144.996L533.593 120.705L515.978 143.498Z" fill="#491772"/>
<path fill-rule="evenodd" clip-rule="evenodd" d="M413.153 286.906L401.401 304.597L413.153 289.063V286.906Z" fill="url(#paint3_linear_583_811)"/>
<path fill-rule="evenodd" clip-rule="evenodd" d="M303.783 511.359H344.623L344.217 221.294L331.704 212.715L319.114 226.7L319.317 342.213L302.21 356.859L301.728 428.994L303.809 519.151L303.783 511.359Z" fill="#5E1675"/>
<path fill-rule="evenodd" clip-rule="evenodd" d="M412.953 249.95L412.877 230.914L404.933 242.691L412.953 249.95Z" fill="#5E1675"/>
<path fill-rule="evenodd" clip-rule="evenodd" d="M385.819 154.463L376.986 161.367L363.255 184.515L379.677 168.372L387.698 155.884L385.819 154.463Z" fill="url(#paint4_linear_583_811)"/>
<path fill-rule="evenodd" clip-rule="evenodd" d="M385.819 154.463L371.047 143.372L362.188 150.174L376.986 161.367L385.819 154.463Z" fill="#8529BA"/>
<path fill-rule="evenodd" clip-rule="evenodd" d="M377.798 163.778L412.597 189.49L417.038 183.398L384.372 158.55L377.798 163.778Z" fill="#8529BA"/>
<path fill-rule="evenodd" clip-rule="evenodd" d="M412.595 189.49L377.797 163.778L374.116 169.895L377.594 172.51L387.213 179.744L408.61 195.557L412.595 189.49Z" fill="#5E1675"/>
</g>
<defs>
<filter id="filter0_d_583_811" x="0" y="0" width="659.005" height="799.975" filterUnits="userSpaceOnUse" color-interpolation-filters="sRGB">
<feFlood flood-opacity="0" result="BackgroundImageFix"/>
<feColorMatrix in="SourceAlpha" type="matrix" values="0 0 0 0 0 0 0 0 0 0 0 0 0 0 0 0 0 0 127 0" result="hardAlpha"/>
<feOffset dx="-12" dy="3"/>
<feGaussianBlur stdDeviation="16"/>
<feComposite in2="hardAlpha" operator="out"/>
<feColorMatrix type="matrix" values="0 0 0 0 0 0 0 0 0 0 0 0 0 0 0 0 0 0 0.25 0"/>
<feBlend mode="normal" in2="BackgroundImageFix" result="effect1_dropShadow_583_811"/>
<feBlend mode="normal" in="SourceGraphic" in2="effect1_dropShadow_583_811" result="shape"/>
</filter>
<linearGradient id="paint0_linear_583_811" x1="399.474" y1="123.446" x2="399.474" y2="179.49" gradientUnits="userSpaceOnUse">
<stop stop-color="#8529BA"/>
<stop offset="1" stop-color="#491772"/>
</linearGradient>
<linearGradient id="paint1_linear_583_811" x1="388.484" y1="86.8964" x2="388.484" y2="99.4858" gradientUnits="userSpaceOnUse">
<stop stop-color="#8529BA"/>
<stop offset="1" stop-color="#491772"/>
</linearGradient>
<linearGradient id="paint2_linear_583_811" x1="352.111" y1="166.012" x2="352.111" y2="183.449" gradientUnits="userSpaceOnUse">
<stop stop-color="#8529BA"/>
<stop offset="1" stop-color="#491772"/>
</linearGradient>
<linearGradient id="paint3_linear_583_811" x1="407.277" y1="286.906" x2="407.277" y2="304.597" gradientUnits="userSpaceOnUse">
<stop stop-color="#8529BA"/>
<stop offset="1" stop-color="#491772"/>
</linearGradient>
<linearGradient id="paint4_linear_583_811" x1="375.476" y1="154.463" x2="375.476" y2="184.515" gradientUnits="userSpaceOnUse">
<stop stop-color="#8529BA"/>
<stop offset="1" stop-color="#491772"/>
</linearGradient>
</defs>
</svg>
