<svg width="421" height="374" viewBox="0 0 421 374" fill="none" xmlns="http://www.w3.org/2000/svg">
<g filter="url(#filter0_d_236_4)">
<path d="M198.043 224.629C197.126 226.306 197.706 229.516 198.11 230.912C197.453 231.604 195.833 232.574 194.606 230.916C193.073 228.844 186.402 224.743 166.278 220.315C146.154 215.888 131.967 225.088 117.43 228.468C102.894 231.848 94.953 226.621 81.7518 217.895C71.1909 210.915 57.2048 196.818 51.5319 190.642C53.126 193.352 56.887 199.501 59.1782 202.414C62.0421 206.056 68.8394 215.131 70.7757 217.626C72.7119 220.121 65.1565 217.31 58.6288 215.022C53.4066 213.191 36.6362 202.736 28.9037 197.737C31.7805 200.828 38.6589 208.008 43.1585 211.999C48.783 216.987 63.8774 225.77 67.261 226.048C70.6447 226.326 70.2866 230.093 69.2403 230.98C68.1941 231.867 59.8938 229.239 52.9218 225.843C45.9498 222.448 33.6214 219.683 30.9628 219.464C28.3042 219.246 36.3894 227.453 40.1394 230.973C43.8893 234.493 50.4581 237.466 52.7757 238.874C55.0933 240.281 52.4394 244.15 55.684 246.12C58.9287 248.09 62.0892 246.939 65.3901 245.263C68.691 243.588 73.7083 245.898 76.8708 246.499C80.0334 247.099 81.2068 251.77 78.8501 251.43C76.4935 251.091 71.9622 251.156 64.2301 252.273C58.0444 253.166 57.2123 255.752 57.5694 256.933C58.4356 257.053 60.9852 257.058 64.2547 256.119C68.3416 254.947 68.9078 256.94 75.9983 258.301C83.0888 259.662 87.8419 259.858 88.1855 261.006C88.5293 262.153 80.4952 263.391 81.262 264.719C82.0288 266.048 88.5989 270.189 100.078 270.256C111.558 270.323 116.732 269.532 118.467 271.524C120.201 273.516 114.342 274.932 118.513 276.881C122.684 278.83 131.219 275.054 133.394 275.232C135.569 275.411 134.122 277.628 136.944 280.001C139.766 282.374 149.147 278.96 152.692 279.641C156.238 280.321 156.04 283.322 157.795 285.656C159.549 287.991 163.152 286.194 164.904 286.192C166.656 286.19 166.074 287.359 167.526 289.23C168.978 291.101 171.434 290.232 174.354 290.229C177.274 290.226 177.478 292.481 179.837 294.573C182.196 296.665 184.952 294.507 186.16 294.022C187.368 293.537 187.268 294.746 188.861 296.093C190.454 297.441 192.627 296.451 196.138 301.703C197.43 304.924 203.289 303.508 204.857 301.009C206.425 298.51 211.422 300.478 215.691 300.05C219.96 299.622 218.76 307.115 221.318 307.374C223.876 307.633 226.345 300.682 229.365 299.47C232.384 298.258 236.172 300.127 238.227 300.588C240.282 301.048 242.193 299.697 245.675 297.598C249.157 295.5 253.729 313.882 259.248 331.416C264.766 348.951 267.806 348.082 270.825 346.87C273.845 345.658 272.166 339.437 274.783 338.387C277.4 337.337 282.299 342.265 285.218 341.094C288.137 339.922 290.711 337.019 292.502 335.366C294.292 333.712 300.582 338.901 302.695 338.053C304.809 337.204 303.896 331.728 304.903 331.324C305.909 330.92 306.856 330.657 309.533 329.465C312.21 328.274 311.016 323.845 312.786 321.265C314.555 318.685 323.786 325.381 328.799 323.603C333.812 321.825 330 317.278 332.857 315.079C335.714 312.881 344.335 313.395 345.438 310.03C346.542 306.666 341.161 302.866 344.702 300.042C348.243 297.218 357.711 299.262 357.988 294.71C358.264 290.158 351.193 287.971 332.58 284.106C313.967 280.24 303.909 272.942 303.04 269.902C302.17 266.862 310.412 271.383 313.269 269.185C316.127 266.986 310.784 261.535 310.237 258.716C309.69 255.897 315.658 262.617 319.043 263.479C322.427 264.341 322.549 265.227 323.71 259.385C324.872 253.544 327.003 250.117 327.18 246.774C327.357 243.431 335.878 245.153 339.258 241.927C342.637 238.701 340.381 237.737 341.183 235.077C341.986 232.418 348.653 233.599 350.04 231.523C351.428 229.447 344.701 229.575 344.458 227.803C344.214 226.031 348.341 224.959 350.151 223.064C351.962 221.169 349.743 218.553 351.513 216.558C353.283 214.562 361.799 212.196 362.24 209.799C362.592 207.881 360.073 205.565 358.77 204.647C361.253 204.04 367.049 202.446 370.366 200.928C374.431 199.068 374.915 196.96 375.574 194.087L375.614 193.914C376.295 190.952 368.987 192.834 367.515 191.204C366.043 189.575 374.903 188.94 380.096 186.155C385.289 183.37 390.075 177.242 391.702 174.018C393.33 170.794 389.706 171.664 385.177 173.482C380.647 175.299 369.518 182.22 368.268 180.268C367.017 178.316 382.416 172.135 383.157 168.449C383.75 165.5 379.172 165.023 376.809 165.154C377.91 164.79 380.316 163.933 381.137 163.417C382.164 162.771 380.43 161.363 379.4 159.089C378.371 156.814 381.996 157.112 387.733 154.81C393.47 152.507 395.617 145.335 394.566 142.718C393.516 140.102 368.534 149.193 366.014 147.283C363.495 145.372 374.567 142.097 377.184 140.463C379.8 138.828 381.909 134.476 382.35 132.079C382.79 129.682 386.316 131.188 392.695 126.992C399.075 122.796 403.13 111.936 404.756 107.544C406.383 103.152 398.935 106.141 390.867 113.118C382.799 120.096 371.045 126.332 369.312 125.508C367.579 124.685 375.469 120.467 387.863 110.584C400.258 100.702 407.834 87.2602 406.1 85.2684C404.713 83.675 397.941 88.4262 394.728 91.001C395.472 89.4562 397.928 85.2295 401.805 80.6817C406.652 74.9969 416.753 49.2072 416.445 44.6561C416.138 40.105 411.576 48.8305 402.146 61.7304C392.716 74.6303 383.681 81.5282 381.426 81.7322C379.17 81.9362 386.892 71.4751 395.147 52.7363C403.403 33.9974 403.07 7.25308 401.901 6.08636C400.731 4.91964 392.382 30.1233 389.781 44.6063C387.18 59.0893 367.047 82.5946 365.617 82.2338C364.187 81.8729 369.843 61.6065 372.734 54.2524C375.626 46.8983 372.789 31.6764 370.573 30.8129C368.356 29.9495 367.346 44.6119 363.035 60.9497C358.724 77.2875 352.077 94.212 335.948 113.423C319.819 132.634 302.488 140.408 287.617 150.817C272.746 161.226 261.323 192.454 256.621 201.704C251.919 210.953 243.526 215.373 235.795 217.074C228.063 218.774 219.779 212.984 209.489 213.257C199.198 213.531 199.188 222.533 198.043 224.629Z" fill="url(#paint0_linear_236_4)"/>
</g>
<defs>
<filter id="filter0_d_236_4" x="0.903809" y="0.0472412" width="419.548" height="373.386" filterUnits="userSpaceOnUse" color-interpolation-filters="sRGB">
<feFlood flood-opacity="0" result="BackgroundImageFix"/>
<feColorMatrix in="SourceAlpha" type="matrix" values="0 0 0 0 0 0 0 0 0 0 0 0 0 0 0 0 0 0 127 0" result="hardAlpha"/>
<feOffset dx="-12" dy="10"/>
<feGaussianBlur stdDeviation="8"/>
<feComposite in2="hardAlpha" operator="out"/>
<feColorMatrix type="matrix" values="0 0 0 0 0 0 0 0 0 0 0 0 0 0 0 0 0 0 0.31 0"/>
<feBlend mode="normal" in2="BackgroundImageFix" result="effect1_dropShadow_236_4"/>
<feBlend mode="normal" in="SourceGraphic" in2="effect1_dropShadow_236_4" result="shape"/>
</filter>
<linearGradient id="paint0_linear_236_4" x1="74.1432" y1="133.217" x2="177.009" y2="353.628" gradientUnits="userSpaceOnUse">
<stop stop-color="#FFD23F"/>
<stop offset="1" stop-color="#FFA514"/>
</linearGradient>
</defs>
</svg>
