<svg width="127" height="127" viewBox="0 0 127 127" fill="none" xmlns="http://www.w3.org/2000/svg">
<path d="M16.7499 72.421L18.4648 77.7902L20.1726 83.1465L28.521 83.2548C29.2709 84.5205 30.04 85.7224 30.8698 86.9142L27.5146 94.5596L35.816 102.116L43.129 98.0429C44.3667 98.7777 45.646 99.4233 46.9846 100.026L47.8838 108.353L58.8655 110.746L63.1294 103.554C64.5663 103.585 66.0415 103.516 67.5107 103.351L72.4182 110.115L83.1234 106.704L83.23 98.3414C83.3334 98.2844 85.8288 96.7474 86.8934 95.9762L94.5328 99.3605L102.115 91.0632L98.0162 83.7461C98.7548 82.492 99.4169 81.2166 99.9932 79.9197L108.352 78.9954L110.745 68.0137L103.538 63.7423C103.549 62.2904 103.487 60.8373 103.337 59.4031L110.095 54.4608L106.858 44.3112L98.3312 43.6399C97.5997 42.3653 96.8051 41.1502 95.9566 39.9856L99.3778 32.3375L91.0402 24.7529L83.7157 28.8571C82.4891 28.1189 81.21 27.4549 79.8749 26.8634L78.9921 18.5403L67.9903 16.1505L63.7248 23.328C62.2509 23.3148 60.8219 23.3664 59.3709 23.5312L54.436 16.7672L49.0868 18.488L43.7306 20.1866L43.6567 28.5666C42.357 29.2666 41.1199 30.059 39.9625 30.9113L32.3158 27.5231L24.7498 35.8426L28.8379 43.1449C28.1068 44.3845 27.4334 45.6817 26.8513 46.9986L18.5173 47.8757L16.122 58.8794L23.2972 63.1759C23.3142 64.5917 23.3745 66.0483 23.506 67.5189L16.7499 72.421ZM37.6259 71.6241C33.0985 57.4283 40.9593 42.2226 55.2432 37.6855C69.478 33.1276 84.6777 41.0176 89.172 55.224C93.7249 69.433 85.913 84.6687 71.6913 89.2104C57.4057 93.7419 42.2075 85.8757 37.6259 71.6241Z" fill="url(#paint0_linear_257_3143)"/>
<defs>
<linearGradient id="paint0_linear_257_3143" x1="45.9396" y1="121.393" x2="112.042" y2="78.3677" gradientUnits="userSpaceOnUse">
<stop stop-color="#B22635"/>
<stop offset="1" stop-color="#EA5571"/>
</linearGradient>
</defs>
</svg>
