<svg width="334" height="334" viewBox="0 0 334 334" fill="none" xmlns="http://www.w3.org/2000/svg">
<path d="M35.4941 271.808L49.6335 285.875L63.7294 299.913L90.1248 286.643C94.5434 289.395 98.9185 291.916 103.467 294.306L105.394 323.787L143.785 333.986L160.112 309.271C165.197 309.561 170.267 309.503 175.454 309.213L191.853 333.899L230.244 323.512L231.91 293.973C236.473 291.728 240.993 289.105 245.339 286.193L271.778 299.435L299.84 271.272L286.541 244.833C286.772 244.485 292.104 235.59 294.19 231.432L323.7 229.607L333.986 191.187L309.184 174.889C309.459 169.746 309.459 164.661 309.155 159.649L333.899 143.119L323.512 104.728L293.915 103.062C291.582 98.4844 289.018 94.0224 286.207 89.7631L299.376 63.2228L272.662 36.6245L244.789 48.417C240.414 45.6065 235.937 43.0858 231.374 40.8113L229.65 11.2142L191.1 0.986328L174.787 25.8172C169.731 25.4985 164.632 25.4985 159.475 25.8172L143.133 1.11671L104.684 11.5474L102.989 41.0431C98.339 43.4045 93.9349 45.8963 89.6468 48.7792L63.1209 35.5815L49.1264 49.7064L35.0739 63.7733L48.5035 90.2123C45.5626 94.5294 42.9694 99.0349 40.7239 103.598L11.1847 105.424L0.98584 143.887L25.7298 160.156C25.4545 165.241 25.4545 170.413 25.7732 175.498L1.0293 191.839L11.4455 230.302L40.9847 232.099C43.3461 236.517 45.9103 240.994 48.7208 245.398L35.4941 271.808ZM99.7588 235.271C62.3966 198.069 62.2952 137.498 99.7588 99.9621C137.034 62.4405 197.633 62.4405 234.909 99.7303C272.372 136.933 272.677 197.518 235.416 234.967C197.938 272.489 137.382 272.561 99.7588 235.271Z" fill="url(#paint0_linear_305_751)"/>
<defs>
<linearGradient id="paint0_linear_305_751" x1="158.171" y1="376.202" x2="455.705" y2="44.0926" gradientUnits="userSpaceOnUse">
<stop stop-color="#34144E"/>
<stop offset="1" stop-color="#8529BA"/>
</linearGradient>
</defs>
</svg>
