<svg width="843" height="82" viewBox="0 0 843 82" fill="none" xmlns="http://www.w3.org/2000/svg">
<g filter="url(#filter0_d_830_211)">
<rect x="43.9219" y="7.26953" width="754.891" height="59.5545" fill="#FFE5C7"/>
<path d="M130.526 26.4154C129.239 27.1781 127.808 27.7366 126.289 28.0361C125.069 26.7377 123.34 25.9277 121.419 25.9277C117.735 25.9277 114.749 28.9161 114.749 32.5971C114.749 33.1211 114.807 33.6281 114.92 34.1209C109.376 33.8391 104.457 31.1848 101.168 27.1494C100.597 28.134 100.264 29.2789 100.264 30.5006C100.264 32.8148 101.441 34.8574 103.234 36.0555C102.14 36.0209 101.109 35.7214 100.211 35.2202C100.209 35.2506 100.209 35.2767 100.209 35.3054C100.209 38.5385 102.51 41.2358 105.56 41.8457C105.003 41.9976 104.412 42.0811 103.804 42.0811C103.374 42.0811 102.957 42.0364 102.55 41.958C103.4 44.6122 105.864 46.5401 108.781 46.5941C106.498 48.3844 103.621 49.45 100.495 49.45C99.9572 49.45 99.4282 49.4188 98.9043 49.3572C101.856 51.2513 105.363 52.3565 109.131 52.3565C121.403 52.3565 128.113 42.1883 128.113 33.3725C128.113 33.084 128.109 32.7963 128.094 32.5111C129.398 31.5704 130.529 30.3917 131.421 29.0562C130.227 29.586 128.939 29.9446 127.591 30.1066C128.969 29.2789 130.024 27.972 130.526 26.4154Z" fill="#491772"/>
<path d="M81.9651 20.0215H68.8987C63.1051 20.0215 58.4082 24.7183 58.4082 30.5128V43.5783C58.4082 49.3711 63.1051 54.0672 68.8987 54.0672H81.9651C87.7587 54.0672 92.4547 49.3711 92.4547 43.5783V30.5128C92.4547 24.7183 87.7587 20.0215 81.9651 20.0215ZM89.1871 42.3237C89.1871 47.0063 85.3913 50.7995 80.7113 50.7995H70.1525C65.4708 50.7995 61.6759 47.0063 61.6759 42.3237V31.7649C61.6759 27.0858 65.4708 23.2883 70.1525 23.2883H80.7113C85.3904 23.2883 89.1871 27.0849 89.1871 31.7649V42.3237Z" fill="#491772"/>
<path d="M75.8873 28.1377C70.9331 28.1377 66.918 32.1512 66.918 37.1045C66.918 42.0553 70.9331 46.0721 75.8873 46.0721C80.8398 46.0721 84.855 42.0553 84.855 37.1045C84.855 32.1512 80.8398 28.1377 75.8873 28.1377ZM75.8873 42.4991C72.9048 42.4991 70.491 40.0827 70.491 37.1045C70.491 34.1229 72.9057 31.7091 75.8873 31.7091C78.8656 31.7091 81.2819 34.1229 81.2819 37.1045C81.2819 40.0827 78.8664 42.4991 75.8873 42.4991Z" fill="#491772"/>
<path d="M84.2335 25.7139C82.9743 25.7139 81.9531 26.7368 81.9531 27.996C81.9531 29.256 82.9735 30.2772 84.2335 30.2772C85.4919 30.2772 86.5156 29.256 86.5156 27.996C86.5156 26.7368 85.4919 25.7139 84.2335 25.7139Z" fill="#491772"/>
<path d="M160.405 28.5658C160.189 28.4552 159.976 28.3322 159.773 28.197C159.179 27.8036 158.634 27.3426 158.15 26.8201C156.94 25.4371 156.487 24.0325 156.321 23.0521H156.327C156.188 22.2376 156.244 21.709 156.253 21.709H150.734V42.9986C150.734 43.2844 150.734 43.5672 150.722 43.8469C150.722 43.8807 150.719 43.9145 150.716 43.9514C150.716 43.9667 150.716 43.9821 150.712 43.9975V44.0098C150.595 45.5619 149.712 46.951 148.356 47.7194C147.66 48.1159 146.875 48.3218 146.074 48.3218C143.503 48.3218 141.421 46.2288 141.421 43.6471C141.421 41.0654 143.503 38.9724 146.074 38.9724C146.561 38.9724 147.044 39.0493 147.506 39.1999L147.513 33.5939C144.673 33.2282 141.809 34.0642 139.616 35.899C138.664 36.7227 137.867 37.7062 137.254 38.8065C137.02 39.206 136.142 40.8165 136.034 43.432C135.967 44.9164 136.413 46.4531 136.626 47.0863V47.0986C136.758 47.4735 137.278 48.749 138.122 49.8247C138.803 50.6883 139.61 51.4475 140.512 52.0744V52.0622L140.525 52.0744C143.195 53.8847 146.158 53.7679 146.158 53.7679C146.669 53.7464 148.387 53.7679 150.337 52.8459C152.499 51.8224 153.731 50.3011 153.731 50.3011C154.516 49.3913 155.144 48.3525 155.582 47.2338C156.081 45.9245 156.247 44.354 156.247 43.7239V32.4291C156.315 32.4691 157.205 33.0561 157.205 33.0561C157.205 33.0561 158.489 33.8767 160.494 34.4115C161.932 34.7926 163.869 34.8725 163.869 34.8725V29.4079C163.192 29.4817 161.812 29.2665 160.401 28.5658H160.405Z" fill="#491772"/>
<path d="M181.426 32.8188C183.082 32.8188 184.474 33.3948 185.554 34.5468C186.634 35.6988 187.186 37.1628 187.186 38.9388C187.186 40.7148 186.634 42.1788 185.554 43.3308C184.474 44.4828 183.082 45.0588 181.426 45.0588C179.65 45.0588 178.21 44.4108 177.106 43.1388V49.6428H174.658V33.0348H177.106V34.7388C178.21 33.4668 179.65 32.8188 181.426 32.8188ZM180.898 42.9228C181.978 42.9228 182.89 42.5388 183.61 41.7948C184.306 41.0508 184.666 40.1148 184.666 38.9388C184.666 37.7868 184.306 36.8268 183.61 36.0828C182.89 35.3388 181.978 34.9548 180.898 34.9548C179.794 34.9548 178.882 35.3388 178.186 36.0828C177.466 36.8268 177.106 37.7868 177.106 38.9388C177.106 40.1148 177.466 41.0508 178.186 41.7948C178.882 42.5388 179.794 42.9228 180.898 42.9228ZM192.302 29.8428C192.302 30.6828 191.63 31.2828 190.742 31.2828C189.806 31.2828 189.182 30.6828 189.182 29.8428C189.182 28.9788 189.806 28.4028 190.742 28.4028C191.678 28.4028 192.302 28.9788 192.302 29.8428ZM189.518 44.8428V33.0348H191.966V44.8428H189.518ZM196.059 34.5468C197.235 33.3948 198.747 32.8188 200.571 32.8188C202.395 32.8188 203.907 33.3948 205.083 34.5468C206.259 35.6988 206.859 37.1628 206.859 38.9388C206.859 40.7148 206.259 42.1788 205.083 43.3308C203.907 44.4828 202.395 45.0588 200.571 45.0588C198.747 45.0588 197.235 44.4828 196.059 43.3308C194.859 42.1788 194.259 40.7148 194.259 38.9388C194.259 37.1628 194.859 35.6988 196.059 34.5468ZM200.547 34.9548C199.467 34.9548 198.555 35.3388 197.859 36.0828C197.139 36.8268 196.779 37.7868 196.779 38.9388C196.779 40.1148 197.139 41.0508 197.859 41.7948C198.555 42.5388 199.467 42.9228 200.547 42.9228C201.651 42.9228 202.563 42.5388 203.283 41.7948C203.979 41.0508 204.339 40.1148 204.339 38.9388C204.339 37.7868 203.979 36.8268 203.283 36.0828C202.563 35.3388 201.651 34.9548 200.547 34.9548ZM215.35 32.8188C216.718 32.8188 217.822 33.2508 218.71 34.1388C219.598 35.0268 220.03 36.1788 220.03 37.5948V44.8428H217.558V37.9308C217.558 36.0348 216.382 34.7868 214.63 34.7868C212.806 34.7868 211.63 36.0348 211.63 37.9308V44.8428H209.182V33.0348H211.63V34.8108C212.422 33.4908 213.67 32.8188 215.35 32.8188ZM225.7 29.8428C225.7 30.6828 225.028 31.2828 224.14 31.2828C223.204 31.2828 222.58 30.6828 222.58 29.8428C222.58 28.9788 223.204 28.4028 224.14 28.4028C225.076 28.4028 225.7 28.9788 225.7 29.8428ZM222.916 44.8428V33.0348H225.364V44.8428H222.916ZM230.802 33.0348V35.7948C231.594 33.8508 233.154 32.7228 235.242 32.7228V35.1468C232.482 35.1468 230.802 36.6108 230.802 39.0108V44.8428H228.354V33.0348H230.802ZM244.419 33.0348H247.323L241.875 38.6748L247.323 44.8428H244.419L239.403 39.1068V44.8428H236.955V28.2348H239.403V38.3148L244.419 33.0348ZM260.602 38.9628C260.602 39.2268 260.578 39.4668 260.53 39.7068H250.426C250.738 41.6988 252.322 43.0428 254.338 43.0428C255.994 43.0428 257.458 42.0108 257.914 40.5708H260.41C260.074 41.8908 259.33 42.9468 258.202 43.7868C257.074 44.6268 255.778 45.0588 254.314 45.0588C252.49 45.0588 250.978 44.4828 249.802 43.3308C248.602 42.1788 248.002 40.7148 248.002 38.9388C248.002 37.1628 248.602 35.6988 249.802 34.5468C250.978 33.3948 252.49 32.8188 254.314 32.8188C256.138 32.8188 257.65 33.3948 258.826 34.5468C260.002 35.6988 260.578 37.1628 260.602 38.9628ZM256.858 35.6508C256.138 35.0988 255.298 34.8348 254.338 34.8348C253.378 34.8348 252.562 35.0988 251.866 35.6508C251.17 36.2028 250.714 36.9228 250.498 37.8108H258.25C258.034 36.9228 257.578 36.2028 256.858 35.6508ZM267.293 32.8188C268.637 32.8188 269.741 33.1548 270.605 33.8028C271.469 34.4748 271.901 35.3388 271.901 36.3948H269.597C269.525 35.3388 268.613 34.6188 267.245 34.6188C265.997 34.6188 265.085 35.2428 265.085 36.1308C265.181 36.8748 265.397 37.2108 266.117 37.4508C266.645 37.6428 266.789 37.6908 267.533 37.8108C268.661 38.0268 268.757 38.0028 269.885 38.4108C270.389 38.6028 270.797 38.8188 271.085 39.0348C271.637 39.5148 272.189 40.3788 272.189 41.4588C272.189 42.5388 271.733 43.4028 270.845 44.0508C269.933 44.7228 268.757 45.0588 267.341 45.0588C265.925 45.0588 264.749 44.7228 263.837 44.0268C262.925 43.3308 262.469 42.4428 262.445 41.3628H264.845C264.869 42.4908 265.949 43.2348 267.413 43.2348C268.781 43.2348 269.765 42.5628 269.765 41.6028C269.765 41.0268 269.549 40.6188 268.973 40.3788C268.397 40.1388 268.133 40.1148 267.245 39.9468C266.309 39.8268 265.829 39.7308 264.893 39.3708C264.413 39.2028 264.029 38.9868 263.741 38.7468C263.165 38.2908 262.661 37.4268 262.661 36.3708C262.661 34.2348 264.533 32.8188 267.293 32.8188ZM284.05 34.7388V33.0348H286.498V44.8428H284.05V43.1388C282.946 44.4108 281.506 45.0588 279.754 45.0588C278.098 45.0588 276.706 44.4828 275.626 43.3308C274.522 42.1788 273.97 40.7148 273.97 38.9388C273.97 37.1628 274.522 35.6988 275.626 34.5468C276.706 33.3948 278.098 32.8188 279.754 32.8188C281.506 32.8188 282.946 33.4668 284.05 34.7388ZM280.258 42.9228C281.362 42.9228 282.274 42.5388 282.994 41.7948C283.69 41.0508 284.05 40.1148 284.05 38.9388C284.05 37.7868 283.69 36.8268 282.994 36.0828C282.274 35.3388 281.362 34.9548 280.258 34.9548C279.178 34.9548 278.266 35.3388 277.57 36.0828C276.85 36.8268 276.49 37.7868 276.49 38.9388C276.49 40.1148 276.85 41.0508 277.57 41.7948C278.266 42.5388 279.178 42.9228 280.258 42.9228ZM293.126 33.0348H295.79V35.0988H293.126V44.8428H290.654V35.0988H288.47V33.0348H290.654V29.9868H293.126V33.0348ZM300.13 33.0348V35.7948C300.922 33.8508 302.482 32.7228 304.57 32.7228V35.1468C301.81 35.1468 300.13 36.6108 300.13 39.0108V44.8428H297.682V33.0348H300.13ZM309.067 29.8428C309.067 30.6828 308.395 31.2828 307.507 31.2828C306.571 31.2828 305.947 30.6828 305.947 29.8428C305.947 28.9788 306.571 28.4028 307.507 28.4028C308.443 28.4028 309.067 28.9788 309.067 29.8428ZM306.283 44.8428V33.0348H308.731V44.8428H306.283ZM321.105 34.7388V33.0348H323.553V44.8428H321.105V43.1388C320.001 44.4108 318.561 45.0588 316.809 45.0588C315.153 45.0588 313.761 44.4828 312.681 43.3308C311.577 42.1788 311.025 40.7148 311.025 38.9388C311.025 37.1628 311.577 35.6988 312.681 34.5468C313.761 33.3948 315.153 32.8188 316.809 32.8188C318.561 32.8188 320.001 33.4668 321.105 34.7388ZM317.313 42.9228C318.417 42.9228 319.329 42.5388 320.049 41.7948C320.745 41.0508 321.105 40.1148 321.105 38.9388C321.105 37.7868 320.745 36.8268 320.049 36.0828C319.329 35.3388 318.417 34.9548 317.313 34.9548C316.233 34.9548 315.321 35.3388 314.625 36.0828C313.905 36.8268 313.545 37.7868 313.545 38.9388C313.545 40.1148 313.905 41.0508 314.625 41.7948C315.321 42.5388 316.233 42.9228 317.313 42.9228ZM326.268 48.2028V46.7148H337.452V48.2028H326.268Z" fill="#491772"/>
<path d="M562.125 26.4466C561.71 24.884 560.488 23.6531 558.935 23.235C556.121 22.4756 544.836 22.4756 544.836 22.4756C544.836 22.4756 533.55 22.4756 530.737 23.235C529.184 23.6531 527.961 24.884 527.546 26.4466C526.793 29.2792 526.793 35.1884 526.793 35.1884C526.793 35.1884 526.793 41.0976 527.546 43.9302C527.961 45.4928 529.184 46.7236 530.737 47.1418C533.552 47.9012 544.836 47.9012 544.836 47.9012C544.836 47.9012 556.12 47.9012 558.935 47.1418C560.488 46.7236 561.71 45.4939 562.125 43.9302C562.88 41.0976 562.88 35.1884 562.88 35.1884C562.88 35.1884 562.878 29.2792 562.125 26.4466Z" fill="#491772"/>
<path d="M541.145 40.555V29.8242L550.577 35.1896L541.145 40.555Z" fill="#FFE5C7"/>
<path d="M569.043 28.1576H575.907C577.539 28.1576 578.859 28.6376 579.891 29.6216C580.923 30.6056 581.427 31.9016 581.427 33.5096C581.427 35.1176 580.923 36.4136 579.891 37.3976C578.859 38.4056 577.539 38.9096 575.907 38.9096H571.659V44.7656H569.043V28.1576ZM571.659 36.6776H575.643C577.491 36.6776 578.739 35.4056 578.739 33.5576C578.739 31.7096 577.539 30.4856 575.643 30.4856H571.659V36.6776ZM583.715 28.1576H586.331V44.7656H583.715V28.1576ZM597.608 27.9416C600.128 27.9416 602.192 28.7336 603.824 30.3416C605.432 31.9496 606.248 33.9656 606.248 36.4376C606.248 38.9096 605.432 40.9496 603.824 42.5576C602.192 44.1656 600.128 44.9816 597.608 44.9816C595.112 44.9816 593.048 44.1656 591.44 42.5576C589.808 40.9496 588.992 38.9096 588.992 36.4376C588.992 33.9656 589.808 31.9496 591.44 30.3416C593.048 28.7336 595.112 27.9416 597.608 27.9416ZM597.608 30.3416C595.88 30.3416 594.464 30.9176 593.336 32.0456C592.208 33.1976 591.656 34.6616 591.656 36.4376C591.656 38.2136 592.208 39.6776 593.336 40.8296C594.464 42.0056 595.88 42.5816 597.608 42.5816C599.36 42.5816 600.776 42.0056 601.904 40.8296C603.032 39.6776 603.584 38.2136 603.584 36.4376C603.584 34.6616 603.032 33.1976 601.904 32.0456C600.776 30.9176 599.36 30.3416 597.608 30.3416ZM619.782 41.3096V28.1576H622.398V44.7656H619.062L611.526 31.6136V44.7656H608.91V28.1576H612.27L619.782 41.3096ZM625.926 28.1576H628.542V44.7656H625.926V28.1576ZM644.667 41.0696C644.739 43.0136 644.835 44.2616 645.003 44.7656H642.267C642.147 44.2136 642.075 43.0856 642.051 41.3816C641.979 39.5336 641.019 38.3096 639.459 38.3096H634.659V44.7656H632.043V28.1576H639.507C642.747 28.1576 644.811 29.9816 644.811 32.8616C644.811 34.9016 643.755 36.4616 641.931 37.1336C643.683 37.6616 644.595 38.9816 644.667 41.0696ZM634.659 36.1976H639.243C640.995 36.1976 642.123 35.0696 642.123 33.3176C642.123 31.5656 641.043 30.4856 639.243 30.4856H634.659V36.1976ZM659.707 36.2696L666.787 44.7656H663.739L656.995 36.6056V44.7656H654.379V28.1576H656.995V35.9816L663.763 28.1576H666.787L659.707 36.2696ZM680.639 28.1576V30.4856H671.831V35.2616H679.919V37.4936H671.831V42.4376H680.639V44.7656H669.215V28.1576H680.639ZM689.056 27.9416C690.808 27.9416 692.224 28.4216 693.328 29.3576C694.432 30.2936 695.008 31.5656 695.032 33.1496H692.488C692.416 31.2296 691.072 30.0776 688.984 30.0776C686.992 30.0776 685.672 31.0616 685.672 32.6696C685.672 36.7976 695.464 33.6776 695.464 40.0136C695.464 41.5256 694.864 42.7496 693.688 43.6376C692.488 44.5256 690.928 44.9816 688.984 44.9816C687.04 44.9816 685.504 44.4776 684.352 43.4936C683.176 42.5096 682.576 41.1896 682.528 39.5576H685.144C685.168 41.5016 686.68 42.8456 689.104 42.8456C691.312 42.8456 692.8 41.7416 692.8 40.1096C692.8 35.9576 683.008 39.0056 683.008 32.8136C683.008 31.3256 683.56 30.1496 684.688 29.2616C685.792 28.3736 687.256 27.9416 689.056 27.9416ZM712.305 44.7656H709.473L708.153 41.1896H700.377L699.057 44.7656H696.249L702.681 28.1576H705.849L712.305 44.7656ZM704.265 30.7016L701.169 39.0296H707.361L704.265 30.7016ZM710.878 28.1576H723.67V30.4856H718.582V44.7656H715.966V30.4856H710.878V28.1576ZM738.417 41.0696C738.489 43.0136 738.585 44.2616 738.753 44.7656H736.017C735.897 44.2136 735.825 43.0856 735.801 41.3816C735.729 39.5336 734.769 38.3096 733.209 38.3096H728.409V44.7656H725.793V28.1576H733.257C736.497 28.1576 738.561 29.9816 738.561 32.8616C738.561 34.9016 737.505 36.4616 735.681 37.1336C737.433 37.6616 738.345 38.9816 738.417 41.0696ZM728.409 36.1976H732.993C734.745 36.1976 735.873 35.0696 735.873 33.3176C735.873 31.5656 734.793 30.4856 732.993 30.4856H728.409V36.1976ZM741.52 28.1576H744.136V44.7656H741.52V28.1576ZM762.133 44.7656H759.301L757.981 41.1896H750.205L748.885 44.7656H746.077L752.509 28.1576H755.677L762.133 44.7656ZM754.093 30.7016L750.997 39.0296H757.189L754.093 30.7016Z" fill="#491772"/>
<path d="M415.621 31.976C416.989 31.976 418.093 32.408 418.981 33.296C419.869 34.184 420.301 35.336 420.301 36.752V44H417.829V37.088C417.829 35.192 416.653 33.944 414.901 33.944C413.077 33.944 411.901 35.192 411.901 37.088V44H409.453V32.192H411.901V33.968C412.693 32.648 413.941 31.976 415.621 31.976ZM425.636 32.192V34.952C426.428 33.008 427.988 31.88 430.076 31.88V34.304C427.316 34.304 425.636 35.768 425.636 38.168V44H423.188V32.192H425.636ZM438.557 31.976C440.213 31.976 441.605 32.552 442.685 33.704C443.765 34.856 444.317 36.32 444.317 38.096C444.317 39.872 443.765 41.336 442.685 42.488C441.605 43.64 440.213 44.216 438.557 44.216C436.781 44.216 435.341 43.568 434.237 42.296V44H431.789V27.392H434.237V33.896C435.341 32.624 436.781 31.976 438.557 31.976ZM438.029 42.08C439.109 42.08 440.021 41.696 440.741 40.952C441.437 40.208 441.797 39.272 441.797 38.096C441.797 36.944 441.437 35.984 440.741 35.24C440.021 34.496 439.109 34.112 438.029 34.112C436.925 34.112 436.013 34.496 435.317 35.24C434.597 35.984 434.237 36.944 434.237 38.096C434.237 39.272 434.597 40.208 435.317 40.952C436.013 41.696 436.925 42.08 438.029 42.08ZM448.905 41.936H457.977V44H446.145V43.76C446.145 42.224 446.673 40.832 447.249 39.968C447.513 39.56 447.921 39.104 448.473 38.648C449.025 38.192 449.457 37.88 449.769 37.664C450.081 37.448 450.561 37.16 451.185 36.8C453.849 35.24 455.289 33.968 455.289 32.12C455.289 30.416 453.993 29.24 452.145 29.24C450.321 29.24 448.953 30.392 448.833 32.384H446.457C446.529 30.776 447.105 29.504 448.161 28.568C449.217 27.632 450.561 27.176 452.193 27.176C453.801 27.176 455.145 27.632 456.177 28.52C457.209 29.432 457.737 30.584 457.737 32C457.737 33.416 457.233 34.616 456.201 35.6C455.145 36.584 454.425 37.088 453.009 37.928C452.457 38.24 452.097 38.456 451.977 38.528C451.857 38.6 451.569 38.792 451.113 39.08C450.657 39.368 450.345 39.584 450.201 39.728C449.913 40.016 449.265 40.616 449.073 41.12C448.977 41.384 448.929 41.648 448.905 41.936ZM466.551 32.792C468.255 32.792 469.647 33.32 470.679 34.352C471.711 35.408 472.239 36.776 472.239 38.432C472.239 40.112 471.639 41.504 470.463 42.584C469.287 43.664 467.775 44.216 465.975 44.216C464.319 44.216 462.927 43.736 461.751 42.776C460.575 41.816 459.951 40.568 459.831 39.008H462.303C462.519 40.904 464.079 42.08 465.975 42.08C467.055 42.08 467.943 41.72 468.663 41C469.359 40.304 469.719 39.392 469.719 38.264C469.719 36.104 468.135 34.52 465.975 34.52C464.607 34.52 463.311 35.288 462.711 36.464H460.359L461.679 27.392H463.647H471.375V29.456H463.407L462.807 34.16C463.767 33.248 465.015 32.792 466.551 32.792ZM481.325 32.744C482.837 32.744 484.157 33.272 485.237 34.328C486.317 35.384 486.869 36.728 486.869 38.336C486.869 40.04 486.269 41.432 485.093 42.536C483.893 43.664 482.381 44.216 480.557 44.216C478.733 44.216 477.221 43.664 476.045 42.536C474.845 41.432 474.245 40.04 474.245 38.336C474.245 37.112 474.605 35.984 475.349 34.904L480.485 27.392H483.389L479.213 33.128C479.885 32.864 480.581 32.744 481.325 32.744ZM477.845 41.024C478.565 41.744 479.477 42.104 480.557 42.104C481.637 42.104 482.549 41.744 483.269 41.024C483.989 40.328 484.349 39.416 484.349 38.336C484.349 37.256 483.989 36.344 483.269 35.648C482.549 34.952 481.637 34.592 480.557 34.592C479.453 34.592 478.541 34.952 477.845 35.648C477.125 36.344 476.765 37.256 476.765 38.336C476.765 39.416 477.125 40.328 477.845 41.024ZM498.689 33.896V32.192H501.137V44H498.689V42.296C497.585 43.568 496.145 44.216 494.393 44.216C492.737 44.216 491.345 43.64 490.265 42.488C489.161 41.336 488.609 39.872 488.609 38.096C488.609 36.32 489.161 34.856 490.265 33.704C491.345 32.552 492.737 31.976 494.393 31.976C496.145 31.976 497.585 32.624 498.689 33.896ZM494.897 42.08C496.001 42.08 496.913 41.696 497.633 40.952C498.329 40.208 498.689 39.272 498.689 38.096C498.689 36.944 498.329 35.984 497.633 35.24C496.913 34.496 496.001 34.112 494.897 34.112C493.817 34.112 492.905 34.496 492.209 35.24C491.489 35.984 491.129 36.944 491.129 38.096C491.129 39.272 491.489 40.208 492.209 40.952C492.905 41.696 493.817 42.08 494.897 42.08Z" fill="#491772"/>
<path d="M385.525 20.0225C375.54 20.0225 367.445 26.5037 367.445 34.5003C367.445 41.627 373.877 47.5514 382.346 48.7545H382.349C382.548 48.7824 382.749 48.8077 382.95 48.8305C385.834 49.4312 383.334 53.0397 384.278 53.7779C385.364 54.6267 393.594 49.1249 398.593 44.5031C399.317 43.8974 399.975 43.241 400.559 42.5416L400.57 42.5306C400.709 42.377 400.819 42.2378 400.905 42.1121C402.616 39.9008 403.604 37.2929 403.604 34.5003C403.605 26.5037 395.511 20.0225 385.525 20.0225ZM379.625 38.1746C379.625 38.6935 379.201 39.1178 378.682 39.1178H375.036C374.517 39.1178 374.093 38.6935 374.093 38.1746V31.1812C374.093 30.6623 374.517 30.2379 375.036 30.2379H375.115C375.633 30.2379 376.058 30.6623 376.058 31.1812V37.1529H378.682C379.201 37.1529 379.625 37.5772 379.625 38.0961V38.1746ZM382.35 38.1746C382.35 38.6935 381.926 39.1178 381.407 39.1178H381.328C380.809 39.1178 380.385 38.6935 380.385 38.1746V31.1812C380.385 30.6623 380.809 30.2379 381.328 30.2379H381.407C381.926 30.2379 382.35 30.6623 382.35 31.1812V38.1746ZM390.891 38.1746C390.891 38.4226 390.793 38.6597 390.618 38.836C390.563 38.9044 390.483 38.9626 390.389 39.0073C390.254 39.0799 390.102 39.1178 389.948 39.117H389.87C389.743 39.117 389.623 39.0917 389.512 39.0461C389.368 38.9921 389.24 38.9044 389.145 38.7753C389.12 38.7449 389.097 38.7137 389.076 38.6808L385.644 33.9924V38.1746C385.644 38.6935 385.219 39.1178 384.701 39.1178H384.622C384.103 39.1178 383.679 38.6935 383.679 38.1746V31.1812C383.679 30.6623 384.103 30.2379 384.622 30.2379H384.701C385.05 30.2379 385.356 30.4303 385.519 30.7146L388.927 35.2858V31.1803C388.927 30.6615 389.352 30.2371 389.871 30.2371H389.949C390.468 30.2371 390.892 30.6615 390.892 31.1803V38.1746H390.891ZM397.63 31.2765C397.63 31.7954 397.206 32.2198 396.687 32.2198H394.062V33.7131H396.687C397.206 33.7131 397.63 34.1375 397.63 34.6564V34.7348C397.63 35.2537 397.206 35.6781 396.687 35.6772H394.062V37.1706H396.687C397.206 37.1706 397.63 37.595 397.63 38.1138V38.1923C397.63 38.7112 397.206 39.1355 396.687 39.1355H393.04C392.522 39.1355 392.097 38.7112 392.097 38.1923V31.1989C392.097 30.68 392.522 30.2556 393.04 30.2556H396.687C397.206 30.2556 397.63 30.68 397.63 31.1989V31.2765Z" fill="#491772"/>
<path d="M11 37.0464L43.9806 7.25519L43.9806 66.8376L11 37.0464Z" fill="#FFE5C7"/>
<path d="M831.824 37.0464L798.844 7.25519V66.8376L831.824 37.0464Z" fill="#FFE5C7"/>
</g>
<defs>
<filter id="filter0_d_830_211" x="0.187941" y="0.601308" width="842.448" height="81.2071" filterUnits="userSpaceOnUse" color-interpolation-filters="sRGB">
<feFlood flood-opacity="0" result="BackgroundImageFix"/>
<feColorMatrix in="SourceAlpha" type="matrix" values="0 0 0 0 0 0 0 0 0 0 0 0 0 0 0 0 0 0 127 0" result="hardAlpha"/>
<feOffset dy="4.15848"/>
<feGaussianBlur stdDeviation="5.40603"/>
<feComposite in2="hardAlpha" operator="out"/>
<feColorMatrix type="matrix" values="0 0 0 0 0 0 0 0 0 0 0 0 0 0 0 0 0 0 0.47 0"/>
<feBlend mode="normal" in2="BackgroundImageFix" result="effect1_dropShadow_830_211"/>
<feBlend mode="normal" in="SourceGraphic" in2="effect1_dropShadow_830_211" result="shape"/>
</filter>
</defs>
</svg>
