<svg width="55" height="55" viewBox="0 0 55 55" fill="none" xmlns="http://www.w3.org/2000/svg">
<path d="M28.2358 7.74739L35.882 0.101196V16.6679L28.2358 24.3141L28.2358 7.74739Z" fill="url(#paint0_linear_477_339)"/>
<ellipse cx="40.9794" cy="14.1193" rx="2.54872" ry="2.54873" fill="url(#paint1_linear_477_339)"/>
<path d="M26.9614 7.74739L19.3153 0.101196L19.3153 16.6679L26.9614 24.3141L26.9614 7.74739Z" fill="url(#paint2_linear_477_339)"/>
<ellipse cx="2.54872" cy="2.54873" rx="2.54872" ry="2.54873" transform="matrix(-1 0 0 1 16.7661 11.5706)" fill="url(#paint3_linear_477_339)"/>
<path d="M28.2368 47.2527L35.883 54.8989V38.3322L28.2368 30.686V47.2527Z" fill="url(#paint4_linear_477_339)"/>
<ellipse cx="2.54872" cy="2.54873" rx="2.54872" ry="2.54873" transform="matrix(1 0 0 -1 38.4312 43.4296)" fill="url(#paint5_linear_477_339)"/>
<path d="M26.9619 47.2529L19.3158 54.899V38.3323L26.9619 30.6861V47.2529Z" fill="url(#paint6_linear_477_339)"/>
<ellipse cx="14.2184" cy="40.881" rx="2.54872" ry="2.54873" transform="rotate(-180 14.2184 40.881)" fill="url(#paint7_linear_477_339)"/>
<path d="M7.84684 26.8629L0.200684 19.2167H16.7674L24.4135 26.8629L7.84684 26.8629Z" fill="url(#paint8_linear_477_339)"/>
<ellipse cx="14.2191" cy="14.1192" rx="2.54873" ry="2.54872" transform="rotate(-90 14.2191 14.1192)" fill="url(#paint9_linear_477_339)"/>
<path d="M7.84684 28.1371L0.200684 35.7833H16.7674L24.4135 28.1371L7.84684 28.1371Z" fill="url(#paint10_linear_477_339)"/>
<ellipse cx="2.54873" cy="2.54872" rx="2.54873" ry="2.54872" transform="matrix(0 1 1 0 11.6699 38.3323)" fill="url(#paint11_linear_477_339)"/>
<path d="M47.3538 26.8629L55 19.2167H38.4333L30.7872 26.8629H47.3538Z" fill="url(#paint12_linear_477_339)"/>
<ellipse cx="2.54873" cy="2.54872" rx="2.54873" ry="2.54872" transform="matrix(0 -1 -1 0 43.5298 16.668)" fill="url(#paint13_linear_477_339)"/>
<path d="M47.3538 28.1372L55 35.7834H38.4333L30.7872 28.1372H47.3538Z" fill="url(#paint14_linear_477_339)"/>
<ellipse cx="40.9816" cy="40.881" rx="2.54873" ry="2.54872" transform="rotate(90 40.9816 40.881)" fill="url(#paint15_linear_477_339)"/>
<defs>
<linearGradient id="paint0_linear_477_339" x1="34.569" y1="-0.25702" x2="29.0465" y2="19.9843" gradientUnits="userSpaceOnUse">
<stop stop-color="#FFD23F"/>
<stop offset="1" stop-color="#FFA514"/>
</linearGradient>
<linearGradient id="paint1_linear_477_339" x1="42.6528" y1="11.4951" x2="42.2612" y2="16.0399" gradientUnits="userSpaceOnUse">
<stop stop-color="#FFD23F"/>
<stop offset="1" stop-color="#FFA514"/>
</linearGradient>
<linearGradient id="paint2_linear_477_339" x1="20.6282" y1="-0.25702" x2="26.1507" y2="19.9843" gradientUnits="userSpaceOnUse">
<stop stop-color="#FFD23F"/>
<stop offset="1" stop-color="#FFA514"/>
</linearGradient>
<linearGradient id="paint3_linear_477_339" x1="4.22214" y1="-0.0754139" x2="3.83057" y2="4.46938" gradientUnits="userSpaceOnUse">
<stop stop-color="#FFD23F"/>
<stop offset="1" stop-color="#FFA514"/>
</linearGradient>
<linearGradient id="paint4_linear_477_339" x1="34.57" y1="55.2571" x2="29.0475" y2="35.0158" gradientUnits="userSpaceOnUse">
<stop stop-color="#FFD23F"/>
<stop offset="1" stop-color="#FFA514"/>
</linearGradient>
<linearGradient id="paint5_linear_477_339" x1="4.22214" y1="-0.0754139" x2="3.83057" y2="4.46938" gradientUnits="userSpaceOnUse">
<stop stop-color="#FFD23F"/>
<stop offset="1" stop-color="#FFA514"/>
</linearGradient>
<linearGradient id="paint6_linear_477_339" x1="20.6287" y1="55.2573" x2="26.1512" y2="35.016" gradientUnits="userSpaceOnUse">
<stop stop-color="#FFD23F"/>
<stop offset="1" stop-color="#FFA514"/>
</linearGradient>
<linearGradient id="paint7_linear_477_339" x1="15.8918" y1="38.2568" x2="15.5002" y2="42.8016" gradientUnits="userSpaceOnUse">
<stop stop-color="#FFD23F"/>
<stop offset="1" stop-color="#FFA514"/>
</linearGradient>
<linearGradient id="paint8_linear_477_339" x1="-0.157531" y1="20.5297" x2="20.0837" y2="26.0521" gradientUnits="userSpaceOnUse">
<stop stop-color="#FFD23F"/>
<stop offset="1" stop-color="#FFA514"/>
</linearGradient>
<linearGradient id="paint9_linear_477_339" x1="15.8926" y1="11.4951" x2="15.501" y2="16.0399" gradientUnits="userSpaceOnUse">
<stop stop-color="#FFD23F"/>
<stop offset="1" stop-color="#FFA514"/>
</linearGradient>
<linearGradient id="paint10_linear_477_339" x1="-0.157531" y1="34.4703" x2="20.0837" y2="28.9479" gradientUnits="userSpaceOnUse">
<stop stop-color="#FFD23F"/>
<stop offset="1" stop-color="#FFA514"/>
</linearGradient>
<linearGradient id="paint11_linear_477_339" x1="4.22216" y1="-0.0754136" x2="3.83059" y2="4.46936" gradientUnits="userSpaceOnUse">
<stop stop-color="#FFD23F"/>
<stop offset="1" stop-color="#FFA514"/>
</linearGradient>
<linearGradient id="paint12_linear_477_339" x1="55.3582" y1="20.5297" x2="35.117" y2="26.0521" gradientUnits="userSpaceOnUse">
<stop stop-color="#FFD23F"/>
<stop offset="1" stop-color="#FFA514"/>
</linearGradient>
<linearGradient id="paint13_linear_477_339" x1="4.22216" y1="-0.0754136" x2="3.83059" y2="4.46936" gradientUnits="userSpaceOnUse">
<stop stop-color="#FFD23F"/>
<stop offset="1" stop-color="#FFA514"/>
</linearGradient>
<linearGradient id="paint14_linear_477_339" x1="55.3582" y1="34.4704" x2="35.117" y2="28.948" gradientUnits="userSpaceOnUse">
<stop stop-color="#FFD23F"/>
<stop offset="1" stop-color="#FFA514"/>
</linearGradient>
<linearGradient id="paint15_linear_477_339" x1="42.655" y1="38.2569" x2="42.2634" y2="42.8016" gradientUnits="userSpaceOnUse">
<stop stop-color="#FFD23F"/>
<stop offset="1" stop-color="#FFA514"/>
</linearGradient>
</defs>
</svg>
