<svg width="203" height="207" viewBox="0 0 203 207" fill="none" xmlns="http://www.w3.org/2000/svg">
<path d="M72.669 181.084L60.7649 164.14C96.4859 198.472 120.042 201.288 120.042 201.288L103.881 186.541C139.417 211.584 163.168 205.689 163.168 205.689C157.389 205.243 143.902 195.834 143.902 195.834C191.817 216.965 202.436 184.368 202.436 184.368L195.047 185.351C197.002 182.115 202.113 181.033 202.113 181.033C206.361 163.185 180.993 153.938 180.993 153.938L161.055 163.987L170.825 154.218C157.343 154.513 153.197 144.65 153.197 144.65C134.46 151.438 109.062 143.044 109.062 143.044C123.985 146.666 140.286 140.253 140.286 140.253C90.7319 118.932 78.2762 82.0749 78.2762 82.0749C63.833 82.5086 49.091 67.0314 49.091 67.0314L66.9362 71.4377C66.9362 71.4377 62.7203 64.1135 63.5253 50.9454C64.3302 37.7772 53.7418 31.8815 53.7418 31.8815C53.7418 31.8815 58.1617 42.5739 51.0954 47.7142C44.029 52.8545 32.0634 43.6715 28.8518 37.2638C25.643 30.8586 22.5705 3.43734 22.5705 3.43734L16.6097 0.607288C16.6097 0.607288 18.4143 9.92851 21.7139 26.411C25.0164 42.8906 -0.758767 40.2273 0.570812 80.1083C1.90039 119.989 29.3857 148.547 29.3857 148.547C29.7985 141.538 33.0686 127.143 33.0686 127.143C34.4394 181.401 72.666 181.087 72.666 181.087L72.669 181.084ZM54.8125 131.771C29.9181 97.3246 25.1044 47.7469 25.1044 47.7469L30.7051 52.8576C30.7051 52.8576 30.269 60.7128 42.6945 98.5577C55.1259 136.402 101.386 132.999 101.386 132.999C85.9221 141.044 56.5075 126.369 56.5075 126.369C97.6362 180.843 154.132 182.865 154.132 182.865C121.014 182.192 79.7069 166.218 54.8153 131.774L54.8125 131.771Z" fill="url(#paint0_linear_189_935)"/>
<defs>
<linearGradient id="paint0_linear_189_935" x1="153.786" y1="241.861" x2="28.611" y2="49.5308" gradientUnits="userSpaceOnUse">
<stop stop-color="#FFD23F"/>
<stop offset="1" stop-color="#FFA514"/>
</linearGradient>
</defs>
</svg>
