<svg width="160" height="192" viewBox="0 0 160 192" fill="none" xmlns="http://www.w3.org/2000/svg">
<path d="M155.013 119.044C155.013 119.044 164.559 86.8622 157.237 68.0664C149.915 49.2706 137.509 42.1483 137.509 42.1483L131.147 0H126.692C126.692 0 136.874 35.6004 132.418 45.5672C127.963 55.534 111.737 54.6807 111.737 54.6807L84.3761 81.4521C84.3761 81.4521 104.422 86.0088 123.514 79.461C123.514 79.461 112.379 89.1433 82.1516 88.29C82.1516 88.29 80.2448 100.253 48.7401 113.924C48.7401 113.924 77.0607 125.887 99.0131 121.615C99.0131 121.615 71.9698 130.728 38.5583 114.493C38.5583 114.493 11.1973 123.037 0.0559892 145.821L29.0122 154.934L0.0559892 150.377C0.0559892 150.377 -4.71706 195.576 73.8766 191.773L87.878 172.308C87.878 172.308 84.6939 183.412 79.603 189.397C79.603 189.397 143.877 169.748 125.739 124.175C125.739 124.175 133.085 131.582 133.546 160.06C133.546 160.06 141.011 143.255 147.055 132.435C153.1 121.615 145.784 103.672 145.784 103.672C145.784 103.672 154.695 111.079 155.013 119.049V119.044ZM113.65 123.6C86.2891 150.656 47.12 155.497 47.12 155.497C139.048 128.442 135.603 60.2302 135.603 60.2302L139.104 62.6507C139.104 62.6507 141.011 96.5445 113.65 123.6Z" fill="url(#paint0_linear_189_947)"/>
<defs>
<linearGradient id="paint0_linear_189_947" x1="80" y1="96" x2="57.9899" y2="225.899" gradientUnits="userSpaceOnUse">
<stop stop-color="#FFD23F"/>
<stop offset="1" stop-color="#FFA514"/>
</linearGradient>
</defs>
</svg>
