<svg width="321" height="297" viewBox="0 0 321 297" fill="none" xmlns="http://www.w3.org/2000/svg">
<path d="M145.315 196.233C144.628 197.703 145.292 200.393 145.709 201.554C145.19 202.176 143.868 203.085 142.74 201.746C141.329 200.072 135.455 196.954 118.162 194.281C100.869 191.609 89.3381 200.167 77.1993 203.811C65.0605 207.456 58.0499 203.452 46.3934 196.765C37.0682 191.416 24.4581 180.219 19.3188 175.289C20.8153 177.5 24.3328 182.51 26.4309 184.856C29.0536 187.789 35.3014 195.115 37.0763 197.126C38.8512 199.137 32.297 197.16 26.6417 195.571C22.1176 194.299 7.34308 186.338 0.521381 182.516C3.12537 184.982 9.34027 190.698 13.368 193.839C18.4026 197.764 31.6668 204.399 34.5495 204.453C37.4321 204.507 37.3307 207.718 36.4916 208.526C35.6525 209.335 28.4767 207.552 22.3855 205.048C16.2943 202.545 5.69727 200.863 3.43229 200.82C1.16731 200.778 8.46016 207.3 11.8272 210.082C15.1943 212.864 20.921 215.032 22.9608 216.1C25.0005 217.168 22.9589 220.59 25.8145 222.086C28.6702 223.581 31.287 222.435 33.9947 220.838C36.7025 219.241 41.0787 220.93 43.7913 221.269C46.5038 221.609 47.749 225.505 45.7334 225.343C43.7179 225.182 39.881 225.48 33.3877 226.842C28.1931 227.931 27.6265 230.166 27.9926 231.148C28.7331 231.203 30.8942 231.071 33.6149 230.1C37.0157 228.887 37.6026 230.546 43.685 231.319C49.7675 232.093 53.8064 232.004 54.1593 232.958C54.5121 233.912 47.7694 235.392 48.4906 236.477C49.2117 237.561 55.0023 240.718 64.735 240.159C74.4678 239.601 78.8111 238.652 80.3878 240.247C81.9646 241.842 77.075 243.357 80.7146 244.785C84.3543 246.213 91.3851 242.555 93.2382 242.59C95.0914 242.624 93.9836 244.581 96.5028 246.441C99.022 248.301 106.789 244.904 109.831 245.29C112.872 245.677 112.865 248.231 114.478 250.115C116.09 251.999 119.047 250.283 120.532 250.187C122.017 250.092 121.586 251.114 122.917 252.622C124.248 254.13 126.283 253.262 128.758 253.102C131.233 252.942 131.526 254.843 133.638 256.489C135.749 258.136 137.97 256.159 138.967 255.683C139.965 255.207 139.945 256.237 141.367 257.293C142.789 258.35 144.579 257.395 147.836 261.658C149.104 264.318 153.994 262.804 155.188 260.601C156.383 258.399 160.724 259.799 164.319 259.207C167.914 258.616 167.299 265.031 169.481 265.113C171.663 265.195 173.383 259.171 175.877 257.982C178.371 256.793 181.682 258.174 183.448 258.454C185.214 258.734 186.762 257.486 189.6 255.521C192.438 253.556 197.3 268.889 202.918 283.455C208.535 298.02 211.065 297.12 213.559 295.931C216.053 294.742 214.297 289.559 216.458 288.529C218.62 287.498 223.037 291.412 225.448 290.263C227.858 289.113 229.885 286.515 231.313 285.017C232.742 283.52 238.351 287.58 240.097 286.748C241.843 285.915 240.775 281.323 241.607 280.926C242.438 280.53 243.226 280.256 245.431 279.103C247.636 277.95 246.387 274.26 247.748 271.978C249.109 269.697 257.292 274.877 261.445 273.101C265.598 271.325 262.124 267.676 264.428 265.659C266.731 263.642 274.065 263.615 274.82 260.705C275.574 257.794 270.81 254.862 273.659 252.279C276.509 249.696 284.643 250.919 284.633 247.047C284.624 243.174 278.513 241.7 262.531 239.423C246.548 237.145 237.632 231.499 236.732 228.969C235.832 226.439 243.06 229.829 245.364 227.813C247.667 225.796 242.846 221.463 242.232 219.103C241.617 216.743 247.036 222.118 249.951 222.667C252.865 223.216 253.016 223.96 253.687 218.947C254.358 213.934 255.98 210.916 255.951 208.073C255.922 205.23 263.236 206.232 265.927 203.316C268.618 200.401 266.654 199.705 267.192 197.408C267.729 195.111 273.443 195.754 274.508 193.92C275.572 192.086 269.878 192.556 269.576 191.067C269.275 189.579 272.715 188.449 274.148 186.745C275.58 185.042 273.56 182.944 274.953 181.158C276.346 179.371 283.437 176.909 283.681 174.854C283.877 173.21 281.618 171.382 280.464 170.674C282.536 170.026 287.362 168.364 290.092 166.9C293.505 165.069 293.746 163.219 294.164 160.673C294.583 158.127 288.49 160.113 287.154 158.811C285.819 157.509 293.295 156.496 297.546 153.857C301.798 151.218 305.526 145.767 306.732 142.948C307.938 140.128 304.914 141.06 301.172 142.843C297.431 144.627 288.371 151.089 287.206 149.502C286.041 147.915 298.761 141.85 299.191 138.686C299.535 136.155 295.63 135.997 293.634 136.234C294.547 135.867 296.541 135.011 297.209 134.53C298.044 133.927 296.499 132.827 295.505 130.955C294.51 129.082 297.598 129.14 302.337 126.881C307.076 124.622 308.51 118.428 307.48 116.267C306.449 114.105 285.764 123.151 283.526 121.667C281.288 120.183 290.497 116.813 292.627 115.287C294.756 113.762 296.311 109.96 296.555 107.905C296.8 105.85 299.869 106.937 305.05 103.038C310.232 99.1396 313.087 89.718 314.229 85.9083C315.372 82.0985 309.22 85.0315 302.756 91.378C296.293 97.7245 286.666 103.641 285.153 103.036C283.64 102.43 290.1 98.4321 300.075 89.3915C310.049 80.3508 315.75 68.5521 314.173 66.9571C312.911 65.681 307.427 70.0712 304.842 72.4258C305.389 71.0766 307.244 67.3626 310.287 63.3001C314.09 58.222 321.266 35.8225 320.761 31.9818C320.257 28.1411 316.859 35.781 309.559 47.22C302.258 58.6591 294.971 64.99 293.071 65.284C291.17 65.5779 297.153 56.2975 303.144 39.9727C309.136 23.648 307.419 0.99921 306.365 0.0731219C305.311 -0.852966 299.588 20.9559 298.16 33.3702C296.732 45.7846 280.931 66.7863 279.699 66.5572C278.468 66.3281 282.174 48.8482 284.23 42.4603C286.286 36.0723 283.065 23.3235 281.14 22.7106C279.216 22.0977 279.146 34.5788 276.369 48.6569C273.592 62.735 268.867 77.4356 256.227 94.5831C243.588 111.731 229.316 119.249 217.271 128.868C205.226 138.488 197.221 165.568 193.732 173.66C190.243 181.751 183.367 185.948 176.906 187.804C170.444 189.66 163.113 185.197 154.406 185.981C145.699 186.765 146.173 194.395 145.315 196.233Z" fill="url(#paint0_linear_189_3615)"/>
<defs>
<linearGradient id="paint0_linear_189_3615" x1="35.4015" y1="125.406" x2="134.41" y2="306.692" gradientUnits="userSpaceOnUse">
<stop stop-color="#FFD23F"/>
<stop offset="1" stop-color="#FFA514"/>
</linearGradient>
</defs>
</svg>
