<svg width="71" height="72" viewBox="0 0 71 72" fill="none" xmlns="http://www.w3.org/2000/svg">
<path fill-rule="evenodd" clip-rule="evenodd" d="M17.0427 41.3231C17.0427 41.3231 18.9675 36.1935 21.0772 33.5056C21.0772 33.5056 20.3134 40.3123 20.5729 41.7615C20.5729 41.7615 22.3772 40.1514 23.4547 39.8619C23.4547 39.8619 22.2744 41.8219 21.8697 42.7843C21.8697 42.7843 29.411 42.886 30.0829 42.5651C30.0829 42.5651 23.3721 45.5391 21.2934 46.1451C21.2934 46.1451 21.8416 47.8108 22.3741 48.41C22.3741 48.41 20.4825 48.3071 19.6363 47.3872C19.6363 47.3872 18.7554 51.1449 18.4836 54.5472C18.4836 54.5472 16.7381 49.903 16.4664 47.1681C16.4664 47.1681 15.081 48.0035 14.5932 48.3371C14.5932 48.3371 14.7959 46.3067 15.3166 45.6904C15.3166 45.6904 12.1992 44.6425 8.97363 41.8345C8.97363 41.8345 14.0929 43.1018 15.4782 42.4126C15.4782 42.4126 15.2251 40.7703 15.3857 39.4235C15.3857 39.4235 16.6103 41.0309 17.0427 41.3231Z" fill="#FFE5C7"/>
<path fill-rule="evenodd" clip-rule="evenodd" d="M21.1348 50.1155C21.1348 50.1155 28.2097 70.1173 49.2558 60.8503C49.2558 60.8503 40.3075 65.4115 32.6902 56.0975C28.3622 50.8055 23.114 51.74 21.1348 50.1155Z" fill="#FFE5C7"/>
<path fill-rule="evenodd" clip-rule="evenodd" d="M25.7407 50.4433C25.7407 50.4433 31.7626 55.4761 39.0739 52.7377C39.0739 52.7377 33.1274 53.7277 29.3772 50.853C28.0388 49.8272 26.675 49.8406 25.7407 50.4433Z" fill="#FFE5C7"/>
<path fill-rule="evenodd" clip-rule="evenodd" d="M26.145 49.1321C26.145 49.1321 27.3077 48.0563 28.8925 48.5585C29.9077 48.8802 30.9939 49.1918 31.6399 48.4765C31.6396 48.4765 28.9476 50.7679 26.145 49.1321Z" fill="#FFE5C7"/>
<path fill-rule="evenodd" clip-rule="evenodd" d="M20.8114 50.2793C20.8114 50.2793 21.4661 52.4155 21.862 52.9016C22.2578 53.3876 21.9393 54.0733 20.8114 54.0488C19.6835 54.0244 20.5603 51.2344 20.8114 50.2793Z" fill="#FFE5C7"/>
<path fill-rule="evenodd" clip-rule="evenodd" d="M24.2863 41.8388C23.13 42.1624 29.1855 36.4855 41.0135 35.8568C46.1238 35.5851 63.2949 30.8108 68.7307 19.8774C68.7307 19.8774 61.693 47.3186 31.7206 41.593C25.9119 40.4834 27.0195 41.0743 24.2863 41.8388Z" fill="#FFE5C7"/>
<path fill-rule="evenodd" clip-rule="evenodd" d="M27.0337 38.3971C29.7577 34.4949 36.7502 34.7489 40.6901 34.5456C54.4149 33.8375 60.4072 21.844 60.4072 21.844C57.958 26.8115 46.269 29.11 43.0339 29.383C28.9889 30.5681 28.1728 35.7016 27.0337 38.3971Z" fill="#FFE5C7"/>
<path fill-rule="evenodd" clip-rule="evenodd" d="M36.4072 29.3012C36.4072 29.3012 40.1564 27.129 44.6496 26.1872C47.8145 25.5238 54.7647 25.9366 56.5283 21.5164C56.0757 23.1897 55.0867 27.1348 44.0031 27.5803C41.2795 27.6898 37.5856 28.6879 36.4072 29.3012Z" fill="#FFE5C7"/>
<path fill-rule="evenodd" clip-rule="evenodd" d="M22.1853 38.8071C22.1853 38.8071 23.3358 31.9895 27.1954 28.8916C27.1954 28.8916 26.1919 32.1988 26.0641 33.4806C25.9362 34.7624 24.1327 38.2994 22.1853 38.8071Z" fill="#FFE5C7"/>
<path fill-rule="evenodd" clip-rule="evenodd" d="M26.468 34.7097C26.468 34.7097 26.5591 30.6707 31.3172 28.1106C31.3172 28.1106 30.8206 28.9091 29.6704 32.216C29.4009 32.9907 28.6413 34.0391 26.468 34.7097Z" fill="#FFE5C7"/>
<path fill-rule="evenodd" clip-rule="evenodd" d="M8.93288 41.1835C8.93288 41.1835 4.16871 43.533 3.5188 36.5126C3.5188 36.5126 4.77103 39.806 8.93288 41.1835Z" fill="#FFE5C7"/>
<path fill-rule="evenodd" clip-rule="evenodd" d="M5.45827 30.6943C5.45827 30.6943 3.62516 41.7125 11.9228 40.2C11.9228 40.2 7.01712 38.2019 5.45827 30.6943Z" fill="#FFE5C7"/>
<path fill-rule="evenodd" clip-rule="evenodd" d="M12.9733 39.6268C12.9733 39.6268 6.22722 37.3916 8.93291 25.5322C8.93291 25.5322 8.34611 29.5734 13.0541 33.5629C13.0541 33.5626 15.5215 35.6664 12.9733 39.6268Z" fill="#FFE5C7"/>
<path fill-rule="evenodd" clip-rule="evenodd" d="M12.0844 25.2041C12.0844 25.2041 17.0807 30.3942 15.3167 35.6112C15.3167 35.6112 14.5844 34.1597 13.0541 32.4972C11.7142 31.0416 10.8845 29.9268 12.0844 25.2041Z" fill="#FFE5C7"/>
<path fill-rule="evenodd" clip-rule="evenodd" d="M14.4276 50.771C14.4276 50.771 9.44166 56.5144 10.7913 64.7837C10.7913 64.7837 9.58826 61.8925 16.044 53.6391C16.0438 53.6391 14.6987 52.425 14.4276 50.771Z" fill="#FFE5C7"/>
<path fill-rule="evenodd" clip-rule="evenodd" d="M14.1045 50.2793C14.1045 50.2793 9.45582 52.765 8.20557 55.196C8.20557 55.196 8.77041 51.4482 11.2763 50.689C12.363 50.36 13.3131 50.4576 14.1045 50.2793Z" fill="#FFE5C7"/>
<path fill-rule="evenodd" clip-rule="evenodd" d="M13.9429 50.8533C13.9429 50.8533 9.99923 53.4026 9.90259 55.6057C9.90259 55.6057 10.9328 55.8065 12.246 53.8029C12.8712 52.849 13.1766 51.809 13.9429 50.8533Z" fill="#FFE5C7"/>
<path fill-rule="evenodd" clip-rule="evenodd" d="M17.4177 35.2013C17.4177 35.2013 18.1151 30.2003 28.4884 26.8429C28.4884 26.8429 28.712 24.3235 32.044 22.1719C33.69 21.109 35.3272 18.482 35.4379 17.4191C35.4379 17.4191 29.626 22.3114 25.8218 20.533C24.0739 19.7159 22.7212 16.5973 22.4279 16.1899C22.4279 16.1899 22.7212 20.4487 21.7006 20.7789L20.8925 19.5497C20.8925 19.5497 19.8932 22.0057 18.7107 22.6636C17.5281 23.3215 18.0642 24.1387 18.0642 24.1387C18.0642 24.1387 18.7616 25.0377 19.4382 25.3678C20.1148 25.6979 26.2769 24.4641 27.3573 23.647C27.3573 23.647 23.2949 27.0823 19.4382 27.0887C18.0135 27.0911 17.873 25.4474 17.5796 25.2859C17.2863 25.1243 17.3726 26.6059 17.5796 27.9901C17.69 28.7299 15.7207 32.7429 17.4177 35.2013Z" fill="#FFE5C7"/>
<path fill-rule="evenodd" clip-rule="evenodd" d="M30.266 19.5498C30.266 19.5498 34.2765 20.121 35.4377 10.0441C35.4377 10.0441 34.4381 11.7626 33.2559 11.5191C33.2559 11.5191 33.498 9.77049 30.67 8.97909C28.9221 8.48975 26.6805 7.09195 26.3872 5.53735C26.3872 5.53735 27.5048 9.62082 31.1549 10.864C31.8599 11.104 32.6501 13.2451 32.4154 14.2107C32.3665 14.4122 32.2882 14.6448 32.1245 14.6336C31.8979 14.6182 31.4781 13.0767 31.4781 13.0767C31.4781 13.0767 32.2229 17.7292 30.266 19.5498Z" fill="#FFE5C7"/>
<path fill-rule="evenodd" clip-rule="evenodd" d="M25.4983 19.7138C25.4983 19.7138 27.5069 20.7488 30.4275 18.7304C31.1244 18.2488 31.1536 15.6562 30.67 15.1248C30.67 15.1248 30.2015 17.8224 25.4983 19.4679" fill="#FFE5C7"/>
<path fill-rule="evenodd" clip-rule="evenodd" d="M34.064 17.3372C34.064 17.3372 35.9284 17.9792 37.7003 12.7483C37.7003 12.7483 36.5537 14.7512 35.8417 14.9608C35.1298 15.1704 34.4856 16.0546 34.064 17.3372Z" fill="#FFE5C7"/>
<path fill-rule="evenodd" clip-rule="evenodd" d="M29.3772 10.3718C29.3772 10.3718 26.0981 8.22756 22.8318 9.22456C22.8318 9.22456 23.983 9.33916 25.3368 10.2079C25.3366 10.2079 27.6486 11.7827 29.3772 10.3718Z" fill="#FFE5C7"/>
<path fill-rule="evenodd" clip-rule="evenodd" d="M25.0943 8.48704C25.0943 8.48704 22.7005 9.31071 20.165 8.65097C20.165 8.65097 21.3215 8.63097 22.1044 7.99537C22.478 7.69197 24.6725 7.11891 25.0943 8.48704Z" fill="#FFE5C7"/>
<path fill-rule="evenodd" clip-rule="evenodd" d="M24.9326 18.6484C24.9326 18.6484 27.3519 19.0403 27.8416 17.0915C28.1137 16.0088 26.9536 16.4107 26.5488 16.8456C26.144 17.2805 26.4164 17.8961 24.9326 18.6484Z" fill="#FFE5C7"/>
<path fill-rule="evenodd" clip-rule="evenodd" d="M29.4517 26.8666C29.4517 26.8666 31.9718 27.4444 34.1193 30.3332C34.1193 30.3332 38.4801 27.1111 39.1813 27.1332C39.1813 27.1332 37.7797 25.3846 37.472 25.0666C37.1644 24.7485 36.8969 25.2504 35.697 26.3332C35.6658 26.3614 35.3846 26.4041 35.1054 26.1332C34.8261 25.8624 33.8563 24.9999 33.8563 24.9999C33.8563 24.9999 33.8222 24.6433 33.922 24.3999C34.0218 24.1565 35.2353 23.4871 35.1711 23.3332C35.1069 23.1794 33.5933 22.3999 33.5933 22.3999C33.5933 22.3999 30.4522 24.3117 29.4517 26.8666Z" fill="#FFE5C7"/>
<path fill-rule="evenodd" clip-rule="evenodd" d="M35.4342 43.7999C35.4342 43.7999 33.1578 50.1043 31.687 50.7333C31.687 50.7333 35.4392 51.7253 37.3407 50.9333C37.3407 50.9333 36.1983 50.3544 36.1574 49.7999C36.149 49.6862 36.749 48.7333 36.749 48.7333C36.749 48.7333 36.8256 48.6261 37.0778 48.5999C37.3299 48.5737 38.4369 48.9306 38.5898 48.7999C38.7427 48.6693 39.6046 47.2525 39.7074 47.1333C39.8101 47.0141 39.7184 46.6633 39.5759 46.5999C39.4334 46.5366 37.9981 45.9999 37.9981 45.9999L38.4583 44.7999C38.4898 44.7595 38.5297 44.7266 38.5752 44.7036C38.6206 44.6806 38.6705 44.6679 38.7213 44.6666C38.8996 44.6586 39.954 44.6884 40.1018 44.4666C40.2496 44.2448 40.4305 43.6666 40.4305 43.6666C40.4305 43.6666 36.9864 43.6373 36.4203 43.3999C35.8543 43.1626 35.497 43.4179 35.4342 43.7999Z" fill="#FFE5C7"/>
<path fill-rule="evenodd" clip-rule="evenodd" d="M17.0268 54.2666C17.0268 54.2666 19.5505 55.6282 22.7463 55.4666C23.1033 55.4485 23.4488 55.7585 23.5351 55.9333C23.6215 56.108 24.985 58.094 25.7046 58.5999C25.9591 58.7789 25.7106 58.8249 25.7046 58.9999C25.6993 59.155 25.0472 59.5333 25.0472 59.5333C25.0472 59.5333 25.0173 59.6748 23.7324 58.2666C23.4376 57.9435 23.3379 58.1333 23.3379 58.1333C23.3379 58.1333 21.5218 58.2024 21.3657 58.1333C21.2096 58.0641 20.9354 58.2125 20.9055 58.5333C20.8757 58.8541 21.1039 59.6173 20.9713 59.7999C20.8386 59.9826 18.3815 59.7815 18.1444 59.5999C17.9073 59.4183 17.6329 58.2915 17.8814 57.9333C18.1299 57.5751 17.9265 57.6248 17.75 57.5999C17.5734 57.5751 16.1035 56.9071 16.0407 56.7333C15.9778 56.5594 15.2106 57.4948 15.1861 57.6666C15.1615 57.8384 14.8639 57.4847 14.6601 57.2666C14.4563 57.0485 16.2105 54.4547 17.0268 54.2666Z" fill="#FFE5C7"/>
<path fill-rule="evenodd" clip-rule="evenodd" d="M11.9647 45C11.9647 45 12.4324 48.5564 12.8193 48.9333C13.0537 49.1616 12.8994 49.5257 12.3592 49.5333C11.8189 49.5409 10.5491 49.7266 9.92675 50.2C9.70882 50.3658 9.77555 50.2533 9.66379 50.1333C9.55203 50.0133 9.11097 49.3695 9.2036 49.1333C9.29623 48.8971 9.81026 48.3874 9.92675 48.3333C10.0432 48.2792 10.1186 47.9923 9.99249 47.8666C9.86633 47.741 9.3103 46.7943 9.2036 45.4666C9.18506 45.2362 8.94064 45.4 8.94064 45.4C8.94064 45.4 7.6581 45.6104 7.49434 45.4C7.33058 45.1895 7.29712 42.8666 7.29712 42.8666C7.29712 42.8666 7.3436 42.6554 7.49434 42.6666C7.64508 42.6778 8.74841 42.6293 8.8749 42.7333C9.00138 42.8373 10.6981 44.1142 11.636 44.5333C11.9892 44.6912 11.9844 44.92 11.9647 45Z" fill="#FFE5C7"/>
<path fill-rule="evenodd" clip-rule="evenodd" d="M16.5008 24.0665L16.8952 28.3998C16.8952 28.3998 16.8798 28.6777 16.8295 28.7331C16.7792 28.7886 15.9091 29.6665 15.9091 29.6665C15.9091 29.6665 15.7455 29.7842 15.7119 29.6665C15.6782 29.5487 14.9121 28.1757 14.7915 28.0665C14.6709 27.9572 14.5932 27.6646 14.7258 27.4665C14.8584 27.2683 15.3832 26.6665 15.3832 26.6665C15.4554 26.4989 15.4783 26.3136 15.4489 26.1331C15.3971 25.8431 15.1548 24.7869 16.1721 24.1331C16.3575 24.0139 16.3836 23.9477 16.5008 24.0665Z" fill="#FFE5C7"/>
</svg>
