<svg width="174" height="175" viewBox="0 0 174 175" fill="none" xmlns="http://www.w3.org/2000/svg">
<path d="M0.026609 80.3938L0.469881 90.7303L0.906774 101.04L15.638 105.265C16.3546 107.868 17.1361 110.368 18.0297 112.88L8.39511 124.798L19.4452 142.189L34.3631 138.509C36.1999 140.408 38.1535 142.169 40.2329 143.883L37.8028 159.063L56.0936 168.605L67.1184 157.929C69.6481 158.678 72.2938 159.268 74.975 159.686L80.3982 174.034L101.003 173.166L105.231 158.408C105.442 158.357 110.603 156.841 112.861 155.989L124.755 165.673L142.189 154.642L138.466 139.705C140.379 137.841 142.168 135.902 143.815 133.884L159.063 136.285L168.606 117.994L157.907 106.949C158.628 104.383 159.22 101.78 159.646 99.1673L174.002 93.68L173.172 74.1429L158.397 68.8354C157.717 66.225 156.897 63.6894 155.957 61.2171L165.71 49.3262L154.609 31.8676L139.656 35.5974C137.84 33.6976 135.896 31.904 133.818 30.2115L136.275 15.0463L117.947 5.49989L106.926 16.1496C104.323 15.4143 101.767 14.8153 99.1181 14.4062L93.6464 0.0445382L83.3427 0.507752L73.0372 0.928489L68.8583 15.7324C66.2185 16.344 63.6451 17.1497 61.1839 18.0998L49.2794 8.40618L31.8625 19.4839L35.5744 34.3898C33.681 36.2318 31.8619 38.2037 30.1949 40.2545L15.0131 37.782L5.45605 56.1105L16.0867 67.1851C15.4329 69.7003 14.8361 72.309 14.3586 74.9766L0.026609 80.3938ZM37.3797 89.067C36.2197 61.7414 57.4851 38.612 84.9712 37.4774C112.38 36.2821 135.485 57.5964 136.582 84.9245C137.78 112.286 116.587 135.492 89.2089 136.665C61.7223 137.789 38.6086 116.517 37.3797 89.067Z" fill="url(#paint0_linear_620_846)"/>
<defs>
<linearGradient id="paint0_linear_620_846" x1="189.019" y1="60.134" x2="74.8408" y2="164.335" gradientUnits="userSpaceOnUse">
<stop stop-color="#FFD23F"/>
<stop offset="1" stop-color="#FFA514"/>
</linearGradient>
</defs>
</svg>
