<svg width="115" height="448" viewBox="0 0 115 448" fill="none" xmlns="http://www.w3.org/2000/svg">
<path d="M27.7738 13.1409C42.0647 24.8378 40.4773 38.6857 40.4773 38.6857C43.5308 19.7135 35.5457 6.9064 35.5457 6.9064C64.7932 -16.805 72.5148 29.2048 72.5148 29.2048C67.8807 32.8361 64.8061 40.4198 64.8061 40.4198L72.898 35.1519L78.928 50.6047C74.7899 73.353 81.4493 88.6949 81.4493 88.6949C70.4672 99.8444 65.6735 118.614 65.6735 118.614C71.2954 107.383 84.9691 99.3447 84.9691 99.3447C82.3766 147.937 104.188 150.115 95.0888 170.352C85.9842 190.587 87.957 212.884 87.957 212.884C90.9104 204.683 98.1551 202.384 98.1551 202.384C95.2985 214.41 105.542 228.735 107.228 242.648C108.914 256.562 85.0762 273.943 85.0762 273.943C103.584 269.918 109.447 252.627 109.447 252.627C109.447 252.627 111.502 285.038 113.939 306.759C116.376 328.48 94.8556 390.902 94.8556 390.902L112.418 433.896L105.598 447.219C105.598 447.219 82.5387 356.71 59.1625 341.238C35.7863 325.765 26.0834 278.311 26.0834 278.311C41.7789 287.199 50.1875 304.792 50.1875 304.792C48.002 286.356 23.302 258.829 23.302 258.829C0.0397059 203.393 6.55453 175.491 6.55453 175.491C22.3802 187.045 28.9342 203.815 28.9342 203.815C28.1568 175.275 -6.05565 168.364 0.949938 150.235C7.9501 132.105 3.40925 137.513 1.84447 124.217C0.279693 110.922 5.05778 97.4072 5.05778 97.4072L20.1678 107.293L2.66503 83.8739C8.91582 19.404 27.7684 13.1393 27.7684 13.1393L27.7738 13.1409ZM47.8126 212.593C55.3137 260.615 74.0985 338.227 74.0985 338.227L83.1838 342.003C83.1838 342.003 54.0826 248.564 49.3615 157.212C44.6404 65.8593 53.5152 44.3229 46.9969 52.9641C46.9969 52.9641 38.9716 156 47.8126 212.593Z" fill="url(#paint0_linear_227_785)"/>
<defs>
<linearGradient id="paint0_linear_227_785" x1="60.3732" y1="-4.11992" x2="20.7357" y2="361.164" gradientUnits="userSpaceOnUse">
<stop stop-color="#FFD23F"/>
<stop offset="1" stop-color="#FFA514"/>
</linearGradient>
</defs>
</svg>
