<svg width="54" height="111" viewBox="0 0 54 111" fill="none" xmlns="http://www.w3.org/2000/svg">
<path d="M0.201084 51.142L0.482049 57.6938L0.758974 64.2288L10.0963 66.9065C10.5505 68.5567 11.0459 70.1413 11.6123 71.7331L5.50543 79.2873L12.5095 90.3109L21.9651 87.978C23.1294 89.1816 24.3677 90.298 25.6857 91.3843L24.1454 101.006L35.739 107.055L42.727 100.287C44.3305 100.762 46.0074 101.136 47.7069 101.401L51.1444 110.496L64.2045 109.946L66.8848 100.591C67.0184 100.559 70.2898 99.5977 71.7209 99.058L79.2595 105.196L90.3105 98.2042L87.9502 88.7362C89.1633 87.5546 90.2969 86.3258 91.3409 85.0466L101.006 86.5683L107.054 74.9747L100.273 67.9738C100.73 66.3474 101.105 64.6974 101.375 63.0416L110.475 59.5635L109.949 47.1799L100.584 43.8157C100.153 42.1611 99.6329 40.554 99.0372 38.9869L105.219 31.4499L98.1828 20.3838L88.7048 22.748C87.554 21.5438 86.3216 20.4069 85.0042 19.3341L86.5617 9.72169L74.9444 3.67073L67.9591 10.421C66.3088 9.95494 64.6889 9.57528 63.0099 9.31599L59.5417 0.212874L53.0107 0.506482L46.4786 0.773164L43.8298 10.1566C42.1566 10.5442 40.5255 11.0549 38.9655 11.6572L31.4198 5.51287L20.3801 12.5344L22.733 21.9825C21.5328 23.15 20.3798 24.3999 19.3232 25.6998L9.70021 24.1326L3.64252 35.7501L10.3807 42.7697C9.96631 44.364 9.588 46.0175 9.28537 47.7084L0.201084 51.142ZM23.8772 56.6395C23.1419 39.3193 36.621 24.6587 54.043 23.9396C71.4162 23.182 86.0612 36.6919 86.7561 54.0138C87.5159 71.3566 74.0826 86.0659 56.729 86.8092C39.3067 87.5216 24.6561 74.0388 23.8772 56.6395Z" fill="url(#paint0_linear_620_354)"/>
<defs>
<linearGradient id="paint0_linear_620_354" x1="119.993" y1="38.3004" x2="47.6218" y2="104.348" gradientUnits="userSpaceOnUse">
<stop stop-color="#FFD23F"/>
<stop offset="1" stop-color="#FFA514"/>
</linearGradient>
</defs>
</svg>
