<svg width="155" height="155" viewBox="0 0 155 155" fill="none" xmlns="http://www.w3.org/2000/svg">
<path d="M22.2021 73.142L22.483 79.6938L22.7599 86.2288L32.0973 88.9065C32.5515 90.5567 33.0469 92.1413 33.6133 93.7331L27.5064 101.287L34.5105 112.311L43.9661 109.978C45.1304 111.182 46.3687 112.298 47.6867 113.384L46.1464 123.006L57.74 129.055L64.728 122.287C66.3315 122.762 68.0084 123.136 69.7079 123.401L73.1453 132.496L86.2055 131.946L88.8858 122.591C89.0193 122.559 92.2908 121.598 93.7219 121.058L101.26 127.196L112.312 120.204L109.951 110.736C111.164 109.555 112.298 108.326 113.342 107.047L123.007 108.568L129.055 96.9747L122.274 89.9738C122.731 88.3474 123.106 86.6974 123.376 85.0416L132.476 81.5635L131.95 69.1799L122.585 65.8157C122.154 64.1611 121.634 62.554 121.038 60.9869L127.22 53.4499L120.184 42.3838L110.706 44.748C109.555 43.5438 108.323 42.4069 107.005 41.3341L108.563 31.7217L96.9454 25.6707L89.96 32.421C88.3097 31.9549 86.6899 31.5753 85.0109 31.316L81.5427 22.2129L75.0117 22.5065L68.4796 22.7732L65.8308 32.1566C64.1576 32.5442 62.5265 33.0549 60.9664 33.6572L53.4208 27.5129L42.3811 34.5344L44.7339 43.9825C43.5338 45.15 42.3808 46.3999 41.3241 47.6998L31.7012 46.1326L25.6435 57.7501L32.3817 64.7697C31.9673 66.364 31.589 68.0175 31.2863 69.7084L22.2021 73.142ZM45.8782 78.6395C45.1429 61.3193 58.6219 46.6587 76.044 45.9396C93.4172 45.182 108.062 58.692 108.757 76.0138C109.517 93.3566 96.0836 108.066 78.73 108.809C61.3077 109.522 46.6571 96.0388 45.8782 78.6395Z" fill="url(#paint0_linear_760_4)"/>
<defs>
<linearGradient id="paint0_linear_760_4" x1="141.994" y1="60.3004" x2="69.6228" y2="126.348" gradientUnits="userSpaceOnUse">
<stop stop-color="#FFD23F"/>
<stop offset="1" stop-color="#FFA514"/>
</linearGradient>
</defs>
</svg>
