<svg width="421" height="537" viewBox="0 0 421 537" fill="none" xmlns="http://www.w3.org/2000/svg">
<g filter="url(#filter0_d_505_1482)">
<path fill-rule="evenodd" clip-rule="evenodd" d="M94.4597 398.305H138.194V364.166V327.424H105.475H94.2667L94.4597 398.305Z" fill="url(#paint0_linear_505_1482)"/>
<path fill-rule="evenodd" clip-rule="evenodd" d="M138.194 327.424V364.166L173.955 331.337L172.738 274.635L135.461 311.457H105.474L105.475 327.424H138.194Z" fill="url(#paint1_linear_505_1482)"/>
<path fill-rule="evenodd" clip-rule="evenodd" d="M173.955 331.895V400.988H197.885L197.826 326.45H173.94L173.955 331.895Z" fill="url(#paint2_linear_505_1482)"/>
<path fill-rule="evenodd" clip-rule="evenodd" d="M253.54 269.079L252.471 326.435L268.786 357.731V402.058H272.2L272.393 309.732L253.54 269.079Z" fill="url(#paint3_linear_505_1482)"/>
<path fill-rule="evenodd" clip-rule="evenodd" d="M253.54 269.079L272.393 309.732L285.932 308.998L266.514 268.983L253.54 269.079Z" fill="url(#paint4_linear_505_1482)"/>
<path fill-rule="evenodd" clip-rule="evenodd" d="M292.078 321.868L291.781 321.884L288.857 322.091L288.53 308.854L272.393 309.732L272.2 402.058L291.38 401.994L292.078 321.868Z" fill="url(#paint5_linear_505_1482)"/>
<path fill-rule="evenodd" clip-rule="evenodd" d="M292.078 321.868L291.38 401.994L309.907 401.946L309.699 321.644L299.693 321.309L292.078 321.868Z" fill="url(#paint6_linear_505_1482)"/>
<path fill-rule="evenodd" clip-rule="evenodd" d="M252.471 326.435L251.327 416.78L268.785 415.199L268.786 357.731L252.471 326.435Z" fill="url(#paint7_linear_505_1482)"/>
<path fill-rule="evenodd" clip-rule="evenodd" d="M259.077 146.303L242.539 135.764L237.7 140.411L237.729 147.724L238.308 276.328L237.729 326.115L252.471 326.435L249.294 326.371L250.184 231.714L246.117 220.265V138.542H246.918L259.077 146.303Z" fill="url(#paint8_linear_505_1482)"/>
<path fill-rule="evenodd" clip-rule="evenodd" d="M268.637 273.342L268.384 231.506L250.184 231.698L249.294 326.355L252.47 326.419L253.539 269.046L266.529 268.967L268.637 273.342ZM263.604 220.265L263.753 149.64L259.077 146.287L246.918 138.542H246.117V220.265L263.604 220.265Z" fill="url(#paint9_linear_505_1482)"/>
<path fill-rule="evenodd" clip-rule="evenodd" d="M221.326 157.017L237.863 175.236L237.729 147.724L232.682 144.115L221.326 157.017Z" fill="url(#paint10_linear_505_1482)"/>
<path fill-rule="evenodd" clip-rule="evenodd" d="M177.845 155.149L188.474 136.435L165.137 116.539L154.909 135.956L177.845 155.149Z" fill="url(#paint11_linear_505_1482)"/>
<path fill-rule="evenodd" clip-rule="evenodd" d="M165.137 116.539L188.474 136.435L201.196 121.601L196.579 117.896L191.68 113.984L184.183 124.427L175.469 117.912L182.936 107.006L178.72 103.621L165.137 116.539Z" fill="url(#paint12_linear_505_1482)"/>
<path fill-rule="evenodd" clip-rule="evenodd" d="M175.469 117.912L184.199 124.97L197.381 102.12L188.637 95.1099L175.469 117.912Z" fill="url(#paint13_linear_505_1482)"/>
<path fill-rule="evenodd" clip-rule="evenodd" d="M194.886 110.455L208.722 120.834L216.753 106.272L223.018 102.807L213.279 94.9505L201.047 105.058L198.998 103.413L194.886 110.455Z" fill="url(#paint14_linear_505_1482)"/>
<path fill-rule="evenodd" clip-rule="evenodd" d="M197.381 102.12L201.047 105.058L212.641 84.0446L189.765 65.4581L179.076 87.4617L188.637 95.1099L197.381 102.12Z" fill="url(#paint15_linear_505_1482)"/>
<path fill-rule="evenodd" clip-rule="evenodd" d="M189.765 65.4581L212.641 84.0446L225.942 69.977L220.984 66.1767L203.096 52.4285L189.765 65.4581Z" fill="url(#paint16_linear_505_1482)"/>
<path fill-rule="evenodd" clip-rule="evenodd" d="M225.942 69.977L212.641 84.0446L201.047 105.058L213.279 94.9505L210.667 92.8426L214.156 86.6471L220.213 82.4158L221.727 83.5974L225.942 69.977Z" fill="url(#paint17_linear_505_1482)"/>
<path fill-rule="evenodd" clip-rule="evenodd" d="M220.211 82.4159L214.154 86.6473L210.666 92.8428L213.932 95.4775L241.425 117.657L249.144 104.994L220.211 82.4159Z" fill="url(#paint18_linear_505_1482)"/>
<path fill-rule="evenodd" clip-rule="evenodd" d="M258.275 95.0144L246.325 109.625L270.478 128.595L281.686 113.266L275.05 108.108L258.275 95.0144Z" fill="url(#paint19_linear_505_1482)"/>
<path fill-rule="evenodd" clip-rule="evenodd" d="M246.325 109.625L241.425 117.657L234.3 129.345L257.933 147.756L270.478 128.595L246.325 109.625Z" fill="url(#paint20_linear_505_1482)"/>
<path fill-rule="evenodd" clip-rule="evenodd" d="M273.403 94.9023L281.538 101.13L276.09 106.99L285.621 114.175L298.046 95.0301L275.882 77.6253L270.479 85.7848L263.353 97.3774L268.326 101.321L273.403 94.9023Z" fill="url(#paint21_linear_505_1482)"/>
<path fill-rule="evenodd" clip-rule="evenodd" d="M281.537 101.13L273.402 94.9027L267.568 102.264L275.792 108.683L281.537 101.13Z" fill="url(#paint22_linear_505_1482)"/>
<path fill-rule="evenodd" clip-rule="evenodd" d="M206.065 109.194L199.637 104.1L191.68 113.984L198.345 119.317L206.065 109.194Z" fill="url(#paint23_linear_505_1482)"/>
<path fill-rule="evenodd" clip-rule="evenodd" d="M275.882 77.6253L298.046 95.0301L308.348 80.6756L286.837 63.4145L277.812 74.7037L275.882 77.6253Z" fill="url(#paint24_linear_505_1482)"/>
<path fill-rule="evenodd" clip-rule="evenodd" d="M270.479 85.7848L277.812 74.7037L249.65 53.2268L248.478 52.3646L243.564 56.1649L240.936 61.7695L243.089 63.478L270.479 85.7848Z" fill="url(#paint25_linear_505_1482)"/>
<path fill-rule="evenodd" clip-rule="evenodd" d="M243.088 63.478L241.366 62.1207L240.935 61.7694L243.563 56.1648L248.477 52.3645L249.649 53.2267L255.023 39.9415L242.999 53.5621L232.444 73.1864L243.088 63.478Z" fill="url(#paint26_linear_505_1482)"/>
<path fill-rule="evenodd" clip-rule="evenodd" d="M220.48 36.0296L243 53.5622L255.024 39.9417L232 23L220.48 36.0296Z" fill="url(#paint27_linear_505_1482)"/>
<path fill-rule="evenodd" clip-rule="evenodd" d="M243 53.5622L220.48 36.0296L209.628 56.069L213.384 59.2784L217.926 53.6578L225.854 59.4062L226.151 62.1047L223.122 66.3841L232.445 73.1863L243 53.5622Z" fill="url(#paint28_linear_505_1482)"/>
<path fill-rule="evenodd" clip-rule="evenodd" d="M212.849 59.9334L220.984 66.1767L221.771 65.3943L226.151 62.1047L225.854 59.4062L217.926 53.6578L212.849 59.9334Z" fill="url(#paint29_linear_505_1482)"/>
<path fill-rule="evenodd" clip-rule="evenodd" d="M265.505 138.127L259.077 146.303L263.753 149.64L263.754 154.286L271.043 143.141L265.505 138.127Z" fill="url(#paint30_linear_505_1482)"/>
<path fill-rule="evenodd" clip-rule="evenodd" d="M265.505 138.127L271.043 143.141L282.548 129.952L275.882 124.89L265.505 138.127Z" fill="url(#paint31_linear_505_1482)"/>
<path fill-rule="evenodd" clip-rule="evenodd" d="M282.548 129.952L271.043 143.141L263.754 154.286V154.877L275.882 141.688L282.548 129.952Z" fill="url(#paint32_linear_505_1482)"/>
<path fill-rule="evenodd" clip-rule="evenodd" d="M265.505 138.127L275.882 124.89L281.687 113.266L270.479 128.595L257.935 147.756L265.505 138.127Z" fill="url(#paint33_linear_505_1482)"/>
<path fill-rule="evenodd" clip-rule="evenodd" d="M195.776 134.103L194.589 133.209L190.269 138.574L186.795 145.057L187.641 145.664L190.774 142.965L188.844 146.414L197.795 152.802L215.832 165.576L219.737 159.54L223.433 154.622L195.776 134.103Z" fill="url(#paint34_linear_505_1482)"/>
<path fill-rule="evenodd" clip-rule="evenodd" d="M195.776 134.103L201.196 121.601L188.474 136.435L177.845 155.149L187.641 145.664L186.795 145.057L190.269 138.574L194.589 133.209L195.776 134.103Z" fill="url(#paint35_linear_505_1482)"/>
<path fill-rule="evenodd" clip-rule="evenodd" d="M219.737 159.54L190.269 138.574L186.795 145.073L196.697 152.035L215.877 165.64L219.737 159.54Z" fill="url(#paint36_linear_505_1482)"/>
<path fill-rule="evenodd" clip-rule="evenodd" d="M208.306 177.631L231.034 196.377L237.907 185.248L237.833 171.5L221.326 157.017L208.306 177.631Z" fill="url(#paint37_linear_505_1482)"/>
<path fill-rule="evenodd" clip-rule="evenodd" d="M214.156 86.6471L245.286 111.317L246.325 109.625L249.755 105.441L219.886 80.8989L214.156 86.6471Z" fill="url(#paint38_linear_505_1482)"/>
<path fill-rule="evenodd" clip-rule="evenodd" d="M245.285 111.317L214.154 86.6473L210.666 92.8428L213.932 95.4775L223.018 102.807L241.425 117.657L245.285 111.317Z" fill="url(#paint39_linear_505_1482)"/>
<path fill-rule="evenodd" clip-rule="evenodd" d="M247.111 58.9273L274.441 79.7972L277.81 74.7035L249.649 53.2267L248.031 51.8217L243.563 56.1648L247.111 58.9273Z" fill="url(#paint40_linear_505_1482)"/>
<path fill-rule="evenodd" clip-rule="evenodd" d="M138.192 398.305H94.4586L94.5625 437.267H138.192V398.305Z" fill="url(#paint41_linear_505_1482)"/>
<path fill-rule="evenodd" clip-rule="evenodd" d="M291.38 401.994L275.288 402.058V449.785L291.069 452.771L291.38 401.994Z" fill="url(#paint42_linear_505_1482)"/>
<path fill-rule="evenodd" clip-rule="evenodd" d="M275.289 437.538L275.288 402.058L268.786 402.058L268.786 438.081L275.289 437.538Z" fill="url(#paint43_linear_505_1482)"/>
<path fill-rule="evenodd" clip-rule="evenodd" d="M291.38 402.01L291.069 452.771L309.996 448.827L309.907 401.946L291.38 402.01Z" fill="url(#paint44_linear_505_1482)"/>
<path fill-rule="evenodd" clip-rule="evenodd" d="M299.693 321.309L299.694 309.62L288.53 308.854L288.857 322.091L299.693 321.309Z" fill="url(#paint45_linear_505_1482)"/>
<path fill-rule="evenodd" clip-rule="evenodd" d="M263.604 220.265L246.117 220.265L250.184 231.714L268.384 231.506L263.604 220.265Z" fill="url(#paint46_linear_505_1482)"/>
<path fill-rule="evenodd" clip-rule="evenodd" d="M244.157 396.229L184.806 395.367V384.237H244.157V396.229Z" fill="url(#paint47_linear_505_1482)"/>
<path fill-rule="evenodd" clip-rule="evenodd" d="M244.157 413.171L146.046 410.473V397.603L244.157 399.503V413.171Z" fill="url(#paint48_linear_505_1482)"/>
<path fill-rule="evenodd" clip-rule="evenodd" d="M244.158 432.029L122.101 428.197V413.73L244.158 417.227V432.029Z" fill="url(#paint49_linear_505_1482)"/>
<path fill-rule="evenodd" clip-rule="evenodd" d="M244.158 432.029L268.785 428.852L268.785 415.199L244.113 418.041L244.158 432.029Z" fill="url(#paint50_linear_505_1482)"/>
<path fill-rule="evenodd" clip-rule="evenodd" d="M250.542 455.023L74.315 449.114V433.801L250.542 435.941V455.023Z" fill="url(#paint51_linear_505_1482)"/>
<path fill-rule="evenodd" clip-rule="evenodd" d="M250.541 455.023L275.287 447.965V435.191L250.541 436.197V455.023Z" fill="url(#paint52_linear_505_1482)"/>
<path fill-rule="evenodd" clip-rule="evenodd" d="M257.146 486L26.5271 470.91V454.847L257.146 463.422V486Z" fill="url(#paint53_linear_505_1482)"/>
<path fill-rule="evenodd" clip-rule="evenodd" d="M257.146 486L292.76 469.138L310.025 464.396L309.98 452.771H291.067L257.146 463.741L257.146 486Z" fill="url(#paint54_linear_505_1482)"/>
<path fill-rule="evenodd" clip-rule="evenodd" d="M310.025 464.396L367.402 458.759L367.447 445.538L309.996 448.827L310.025 464.396Z" fill="url(#paint55_linear_505_1482)"/>
<path fill-rule="evenodd" clip-rule="evenodd" d="M309.981 441.642L341.735 439.055V427.606L309.952 430.289L309.981 441.642Z" fill="url(#paint56_linear_505_1482)"/>
<path fill-rule="evenodd" clip-rule="evenodd" d="M309.952 425.179L322.333 424.093V413.123L309.922 413.826L309.952 425.179Z" fill="url(#paint57_linear_505_1482)"/>
<path fill-rule="evenodd" clip-rule="evenodd" d="M244.158 388.229L181.986 387.223V384.237H244.157L244.158 388.229Z" fill="url(#paint58_linear_505_1482)"/>
<path fill-rule="evenodd" clip-rule="evenodd" d="M244.157 402.633L142.483 401.164V397.603L244.157 399.503L244.157 402.633Z" fill="url(#paint59_linear_505_1482)"/>
<path fill-rule="evenodd" clip-rule="evenodd" d="M246.458 421.794L117.662 418.153V413.73L246.384 417.227L246.458 421.794Z" fill="url(#paint60_linear_505_1482)"/>
<path fill-rule="evenodd" clip-rule="evenodd" d="M246.458 421.794L268.785 419.159V415.199L246.384 417.227L246.458 421.794Z" fill="url(#paint61_linear_505_1482)"/>
<path fill-rule="evenodd" clip-rule="evenodd" d="M251.907 444.069L69.9207 438.224V433.801L251.833 439.23L251.907 444.069Z" fill="url(#paint62_linear_505_1482)"/>
<path fill-rule="evenodd" clip-rule="evenodd" d="M251.906 444.068L276.029 439.518V435.222L251.832 439.23L251.906 444.068Z" fill="url(#paint63_linear_505_1482)"/>
<path fill-rule="evenodd" clip-rule="evenodd" d="M259.359 469.394L22 459.223V454.783L259.225 463.582L259.359 469.394Z" fill="url(#paint64_linear_505_1482)"/>
<path fill-rule="evenodd" clip-rule="evenodd" d="M259.359 469.394L291.484 457.242L309.981 452.771L309.996 448.827L291.069 452.771L259.225 463.582L259.359 469.394Z" fill="url(#paint65_linear_505_1482)"/>
<path fill-rule="evenodd" clip-rule="evenodd" d="M309.98 452.771L370 447.246V443.701L309.996 448.827L309.98 452.771Z" fill="url(#paint66_linear_505_1482)"/>
<path fill-rule="evenodd" clip-rule="evenodd" d="M309.936 433.147L343.857 430.097V427.431L309.952 430.289L309.936 433.147Z" fill="url(#paint67_linear_505_1482)"/>
<path fill-rule="evenodd" clip-rule="evenodd" d="M309.906 416.684L324.87 415.311V412.66L309.922 413.826L309.906 416.684Z" fill="url(#paint68_linear_505_1482)"/>
<path fill-rule="evenodd" clip-rule="evenodd" d="M22 454.783L259.225 463.582L250.541 455.023L74.315 449.114L74.3143 447.661L22 454.783Z" fill="url(#paint69_linear_505_1482)"/>
<path fill-rule="evenodd" clip-rule="evenodd" d="M291.069 452.771L259.225 463.582L250.541 455.023L275.287 447.965L291.069 452.771Z" fill="url(#paint70_linear_505_1482)"/>
<path fill-rule="evenodd" clip-rule="evenodd" d="M370 443.701L309.996 448.827L309.981 441.642L337.489 439.454V439.39L341.735 439.055L341.735 437.746L370 443.701Z" fill="url(#paint71_linear_505_1482)"/>
<path fill-rule="evenodd" clip-rule="evenodd" d="M343.857 427.431L309.952 430.289V425.003L309.952 425.179L322.333 424.093L322.332 423.199L343.857 427.431Z" fill="url(#paint72_linear_505_1482)"/>
<path fill-rule="evenodd" clip-rule="evenodd" d="M324.87 412.66L309.921 413.922L309.907 409.722L324.87 412.66Z" fill="url(#paint73_linear_505_1482)"/>
<path fill-rule="evenodd" clip-rule="evenodd" d="M251.833 439.23L244.158 432.029L122.101 428.197V427.654L69.9207 433.801L251.833 439.23Z" fill="url(#paint74_linear_505_1482)"/>
<path fill-rule="evenodd" clip-rule="evenodd" d="M251.833 439.23L244.158 432.029L264.154 429.442L268.785 428.852L268.786 433.019L276.03 435.223L251.833 439.23Z" fill="url(#paint75_linear_505_1482)"/>
<path fill-rule="evenodd" clip-rule="evenodd" d="M244.098 399.503L142.483 397.603L184.806 395.367L244.157 396.229L244.098 399.503Z" fill="url(#paint76_linear_505_1482)"/>
<path fill-rule="evenodd" clip-rule="evenodd" d="M251.327 416.78L252.471 326.53L237.729 326.115L237.091 399.519V413.666L251.327 416.78Z" fill="url(#paint77_linear_505_1482)"/>
<path fill-rule="evenodd" clip-rule="evenodd" d="M117.662 413.73L246.384 417.227L251.327 416.78L237.091 413.666L237.091 412.98L146.046 410.473L146.046 409.882L117.662 413.73Z" fill="url(#paint78_linear_505_1482)"/>
<path fill-rule="evenodd" clip-rule="evenodd" d="M220.806 66.0331L222.439 67.3425L226.151 62.1047L225.854 59.4062L220.806 66.0331Z" fill="url(#paint79_linear_505_1482)"/>
<path fill-rule="evenodd" clip-rule="evenodd" d="M275.793 108.683L277.025 109.641L280.039 105.681L281.538 101.13L275.793 108.683Z" fill="url(#paint80_linear_505_1482)"/>
<path fill-rule="evenodd" clip-rule="evenodd" d="M198.345 119.317L199.398 120.163L204.238 113.904L206.065 109.194L198.345 119.317Z" fill="url(#paint81_linear_505_1482)"/>
<path fill-rule="evenodd" clip-rule="evenodd" d="M183.812 125.05L188.979 120.579L198.998 103.413L197.381 102.12L183.812 125.05Z" fill="url(#paint82_linear_505_1482)"/>
<path fill-rule="evenodd" clip-rule="evenodd" d="M298.046 95.0301L285.621 114.175L299.278 95.9724L308.348 80.6756L298.046 95.0301Z" fill="url(#paint83_linear_505_1482)"/>
<path fill-rule="evenodd" clip-rule="evenodd" d="M237.907 185.248L231.034 196.377L237.908 186.589L237.907 185.248Z" fill="url(#paint84_linear_505_1482)"/>
<path fill-rule="evenodd" clip-rule="evenodd" d="M173.94 326.45H197.826L197.588 143.955L190.269 138.574L182.907 147.373L183.025 220.026L173.02 229.239L172.738 274.635L173.955 331.337L173.94 326.45Z" fill="url(#paint85_linear_505_1482)"/>
<path fill-rule="evenodd" clip-rule="evenodd" d="M237.79 161.999L237.745 150.007L233.099 157.416L237.79 161.999Z" fill="url(#paint86_linear_505_1482)"/>
<path fill-rule="evenodd" clip-rule="evenodd" d="M221.92 101.912L216.753 106.272L208.722 120.834L218.327 110.662L223.018 102.807L221.92 101.912Z" fill="url(#paint87_linear_505_1482)"/>
<path fill-rule="evenodd" clip-rule="evenodd" d="M221.92 101.912L213.279 94.9505L208.099 99.2298L216.753 106.272L221.92 101.912Z" fill="url(#paint88_linear_505_1482)"/>
<path fill-rule="evenodd" clip-rule="evenodd" d="M217.228 107.789L237.581 123.964L240.179 120.132L221.073 104.499L217.228 107.789Z" fill="url(#paint89_linear_505_1482)"/>
<path fill-rule="evenodd" clip-rule="evenodd" d="M237.581 123.964L217.228 107.789L215.076 111.637L217.109 113.265L222.736 117.816L235.25 127.78L237.581 123.964Z" fill="url(#paint90_linear_505_1482)"/>
</g>
<defs>
<filter id="filter0_d_505_1482" x="0.0687504" y="0.92375" width="420.5" height="535.5" filterUnits="userSpaceOnUse" color-interpolation-filters="sRGB">
<feFlood flood-opacity="0" result="BackgroundImageFix"/>
<feColorMatrix in="SourceAlpha" type="matrix" values="0 0 0 0 0 0 0 0 0 0 0 0 0 0 0 0 0 0 127 0" result="hardAlpha"/>
<feOffset dx="14.3188" dy="14.1737"/>
<feGaussianBlur stdDeviation="18.125"/>
<feComposite in2="hardAlpha" operator="out"/>
<feColorMatrix type="matrix" values="0 0 0 0 0 0 0 0 0 0 0 0 0 0 0 0 0 0 0.4 0"/>
<feBlend mode="normal" in2="BackgroundImageFix" result="effect1_dropShadow_505_1482"/>
<feBlend mode="normal" in="SourceGraphic" in2="effect1_dropShadow_505_1482" result="shape"/>
</filter>
<linearGradient id="paint0_linear_505_1482" x1="195.887" y1="113.549" x2="163.476" y2="404.009" gradientUnits="userSpaceOnUse">
<stop stop-color="#FFD23F"/>
<stop offset="1" stop-color="#FFA514"/>
</linearGradient>
<linearGradient id="paint1_linear_505_1482" x1="195.887" y1="113.549" x2="163.476" y2="404.009" gradientUnits="userSpaceOnUse">
<stop stop-color="#FFD23F"/>
<stop offset="1" stop-color="#FFA514"/>
</linearGradient>
<linearGradient id="paint2_linear_505_1482" x1="195.887" y1="113.549" x2="163.476" y2="404.009" gradientUnits="userSpaceOnUse">
<stop stop-color="#FFD23F"/>
<stop offset="1" stop-color="#FFA514"/>
</linearGradient>
<linearGradient id="paint3_linear_505_1482" x1="195.887" y1="113.549" x2="163.476" y2="404.009" gradientUnits="userSpaceOnUse">
<stop stop-color="#FFD23F"/>
<stop offset="1" stop-color="#FFA514"/>
</linearGradient>
<linearGradient id="paint4_linear_505_1482" x1="195.887" y1="113.549" x2="163.476" y2="404.009" gradientUnits="userSpaceOnUse">
<stop stop-color="#FFD23F"/>
<stop offset="1" stop-color="#FFA514"/>
</linearGradient>
<linearGradient id="paint5_linear_505_1482" x1="195.887" y1="113.549" x2="163.476" y2="404.009" gradientUnits="userSpaceOnUse">
<stop stop-color="#FFD23F"/>
<stop offset="1" stop-color="#FFA514"/>
</linearGradient>
<linearGradient id="paint6_linear_505_1482" x1="195.887" y1="113.549" x2="163.476" y2="404.009" gradientUnits="userSpaceOnUse">
<stop stop-color="#FFD23F"/>
<stop offset="1" stop-color="#FFA514"/>
</linearGradient>
<linearGradient id="paint7_linear_505_1482" x1="195.887" y1="113.549" x2="163.476" y2="404.009" gradientUnits="userSpaceOnUse">
<stop stop-color="#FFD23F"/>
<stop offset="1" stop-color="#FFA514"/>
</linearGradient>
<linearGradient id="paint8_linear_505_1482" x1="195.887" y1="113.549" x2="163.476" y2="404.009" gradientUnits="userSpaceOnUse">
<stop stop-color="#FFD23F"/>
<stop offset="1" stop-color="#FFA514"/>
</linearGradient>
<linearGradient id="paint9_linear_505_1482" x1="195.887" y1="113.549" x2="163.476" y2="404.009" gradientUnits="userSpaceOnUse">
<stop stop-color="#FFD23F"/>
<stop offset="1" stop-color="#FFA514"/>
</linearGradient>
<linearGradient id="paint10_linear_505_1482" x1="195.887" y1="113.549" x2="163.476" y2="404.009" gradientUnits="userSpaceOnUse">
<stop stop-color="#FFD23F"/>
<stop offset="1" stop-color="#FFA514"/>
</linearGradient>
<linearGradient id="paint11_linear_505_1482" x1="195.887" y1="113.549" x2="163.476" y2="404.009" gradientUnits="userSpaceOnUse">
<stop stop-color="#FFD23F"/>
<stop offset="1" stop-color="#FFA514"/>
</linearGradient>
<linearGradient id="paint12_linear_505_1482" x1="195.887" y1="113.549" x2="163.476" y2="404.009" gradientUnits="userSpaceOnUse">
<stop stop-color="#FFD23F"/>
<stop offset="1" stop-color="#FFA514"/>
</linearGradient>
<linearGradient id="paint13_linear_505_1482" x1="195.887" y1="113.549" x2="163.476" y2="404.009" gradientUnits="userSpaceOnUse">
<stop stop-color="#FFD23F"/>
<stop offset="1" stop-color="#FFA514"/>
</linearGradient>
<linearGradient id="paint14_linear_505_1482" x1="195.887" y1="113.549" x2="163.476" y2="404.009" gradientUnits="userSpaceOnUse">
<stop stop-color="#FFD23F"/>
<stop offset="1" stop-color="#FFA514"/>
</linearGradient>
<linearGradient id="paint15_linear_505_1482" x1="195.887" y1="113.549" x2="163.476" y2="404.009" gradientUnits="userSpaceOnUse">
<stop stop-color="#FFD23F"/>
<stop offset="1" stop-color="#FFA514"/>
</linearGradient>
<linearGradient id="paint16_linear_505_1482" x1="195.887" y1="113.549" x2="163.476" y2="404.009" gradientUnits="userSpaceOnUse">
<stop stop-color="#FFD23F"/>
<stop offset="1" stop-color="#FFA514"/>
</linearGradient>
<linearGradient id="paint17_linear_505_1482" x1="195.887" y1="113.549" x2="163.476" y2="404.009" gradientUnits="userSpaceOnUse">
<stop stop-color="#FFD23F"/>
<stop offset="1" stop-color="#FFA514"/>
</linearGradient>
<linearGradient id="paint18_linear_505_1482" x1="195.887" y1="113.549" x2="163.476" y2="404.009" gradientUnits="userSpaceOnUse">
<stop stop-color="#FFD23F"/>
<stop offset="1" stop-color="#FFA514"/>
</linearGradient>
<linearGradient id="paint19_linear_505_1482" x1="195.887" y1="113.549" x2="163.476" y2="404.009" gradientUnits="userSpaceOnUse">
<stop stop-color="#FFD23F"/>
<stop offset="1" stop-color="#FFA514"/>
</linearGradient>
<linearGradient id="paint20_linear_505_1482" x1="195.887" y1="113.549" x2="163.476" y2="404.009" gradientUnits="userSpaceOnUse">
<stop stop-color="#FFD23F"/>
<stop offset="1" stop-color="#FFA514"/>
</linearGradient>
<linearGradient id="paint21_linear_505_1482" x1="195.887" y1="113.549" x2="163.476" y2="404.009" gradientUnits="userSpaceOnUse">
<stop stop-color="#FFD23F"/>
<stop offset="1" stop-color="#FFA514"/>
</linearGradient>
<linearGradient id="paint22_linear_505_1482" x1="195.887" y1="113.549" x2="163.476" y2="404.009" gradientUnits="userSpaceOnUse">
<stop stop-color="#FFD23F"/>
<stop offset="1" stop-color="#FFA514"/>
</linearGradient>
<linearGradient id="paint23_linear_505_1482" x1="195.887" y1="113.549" x2="163.476" y2="404.009" gradientUnits="userSpaceOnUse">
<stop stop-color="#FFD23F"/>
<stop offset="1" stop-color="#FFA514"/>
</linearGradient>
<linearGradient id="paint24_linear_505_1482" x1="195.887" y1="113.549" x2="163.476" y2="404.009" gradientUnits="userSpaceOnUse">
<stop stop-color="#FFD23F"/>
<stop offset="1" stop-color="#FFA514"/>
</linearGradient>
<linearGradient id="paint25_linear_505_1482" x1="195.887" y1="113.549" x2="163.476" y2="404.009" gradientUnits="userSpaceOnUse">
<stop stop-color="#FFD23F"/>
<stop offset="1" stop-color="#FFA514"/>
</linearGradient>
<linearGradient id="paint26_linear_505_1482" x1="195.887" y1="113.549" x2="163.476" y2="404.009" gradientUnits="userSpaceOnUse">
<stop stop-color="#FFD23F"/>
<stop offset="1" stop-color="#FFA514"/>
</linearGradient>
<linearGradient id="paint27_linear_505_1482" x1="195.887" y1="113.549" x2="163.476" y2="404.009" gradientUnits="userSpaceOnUse">
<stop stop-color="#FFD23F"/>
<stop offset="1" stop-color="#FFA514"/>
</linearGradient>
<linearGradient id="paint28_linear_505_1482" x1="195.887" y1="113.549" x2="163.476" y2="404.009" gradientUnits="userSpaceOnUse">
<stop stop-color="#FFD23F"/>
<stop offset="1" stop-color="#FFA514"/>
</linearGradient>
<linearGradient id="paint29_linear_505_1482" x1="195.887" y1="113.549" x2="163.476" y2="404.009" gradientUnits="userSpaceOnUse">
<stop stop-color="#FFD23F"/>
<stop offset="1" stop-color="#FFA514"/>
</linearGradient>
<linearGradient id="paint30_linear_505_1482" x1="195.887" y1="113.549" x2="163.476" y2="404.009" gradientUnits="userSpaceOnUse">
<stop stop-color="#FFD23F"/>
<stop offset="1" stop-color="#FFA514"/>
</linearGradient>
<linearGradient id="paint31_linear_505_1482" x1="195.887" y1="113.549" x2="163.476" y2="404.009" gradientUnits="userSpaceOnUse">
<stop stop-color="#FFD23F"/>
<stop offset="1" stop-color="#FFA514"/>
</linearGradient>
<linearGradient id="paint32_linear_505_1482" x1="195.887" y1="113.549" x2="163.476" y2="404.009" gradientUnits="userSpaceOnUse">
<stop stop-color="#FFD23F"/>
<stop offset="1" stop-color="#FFA514"/>
</linearGradient>
<linearGradient id="paint33_linear_505_1482" x1="195.887" y1="113.549" x2="163.476" y2="404.009" gradientUnits="userSpaceOnUse">
<stop stop-color="#FFD23F"/>
<stop offset="1" stop-color="#FFA514"/>
</linearGradient>
<linearGradient id="paint34_linear_505_1482" x1="195.887" y1="113.549" x2="163.476" y2="404.009" gradientUnits="userSpaceOnUse">
<stop stop-color="#FFD23F"/>
<stop offset="1" stop-color="#FFA514"/>
</linearGradient>
<linearGradient id="paint35_linear_505_1482" x1="195.887" y1="113.549" x2="163.476" y2="404.009" gradientUnits="userSpaceOnUse">
<stop stop-color="#FFD23F"/>
<stop offset="1" stop-color="#FFA514"/>
</linearGradient>
<linearGradient id="paint36_linear_505_1482" x1="195.887" y1="113.549" x2="163.476" y2="404.009" gradientUnits="userSpaceOnUse">
<stop stop-color="#FFD23F"/>
<stop offset="1" stop-color="#FFA514"/>
</linearGradient>
<linearGradient id="paint37_linear_505_1482" x1="195.887" y1="113.549" x2="163.476" y2="404.009" gradientUnits="userSpaceOnUse">
<stop stop-color="#FFD23F"/>
<stop offset="1" stop-color="#FFA514"/>
</linearGradient>
<linearGradient id="paint38_linear_505_1482" x1="195.887" y1="113.549" x2="163.476" y2="404.009" gradientUnits="userSpaceOnUse">
<stop stop-color="#FFD23F"/>
<stop offset="1" stop-color="#FFA514"/>
</linearGradient>
<linearGradient id="paint39_linear_505_1482" x1="195.887" y1="113.549" x2="163.476" y2="404.009" gradientUnits="userSpaceOnUse">
<stop stop-color="#FFD23F"/>
<stop offset="1" stop-color="#FFA514"/>
</linearGradient>
<linearGradient id="paint40_linear_505_1482" x1="195.887" y1="113.549" x2="163.476" y2="404.009" gradientUnits="userSpaceOnUse">
<stop stop-color="#FFD23F"/>
<stop offset="1" stop-color="#FFA514"/>
</linearGradient>
<linearGradient id="paint41_linear_505_1482" x1="195.887" y1="113.549" x2="163.476" y2="404.009" gradientUnits="userSpaceOnUse">
<stop stop-color="#FFD23F"/>
<stop offset="1" stop-color="#FFA514"/>
</linearGradient>
<linearGradient id="paint42_linear_505_1482" x1="195.887" y1="113.549" x2="163.476" y2="404.009" gradientUnits="userSpaceOnUse">
<stop stop-color="#FFD23F"/>
<stop offset="1" stop-color="#FFA514"/>
</linearGradient>
<linearGradient id="paint43_linear_505_1482" x1="195.887" y1="113.549" x2="163.476" y2="404.009" gradientUnits="userSpaceOnUse">
<stop stop-color="#FFD23F"/>
<stop offset="1" stop-color="#FFA514"/>
</linearGradient>
<linearGradient id="paint44_linear_505_1482" x1="195.887" y1="113.549" x2="163.476" y2="404.009" gradientUnits="userSpaceOnUse">
<stop stop-color="#FFD23F"/>
<stop offset="1" stop-color="#FFA514"/>
</linearGradient>
<linearGradient id="paint45_linear_505_1482" x1="195.887" y1="113.549" x2="163.476" y2="404.009" gradientUnits="userSpaceOnUse">
<stop stop-color="#FFD23F"/>
<stop offset="1" stop-color="#FFA514"/>
</linearGradient>
<linearGradient id="paint46_linear_505_1482" x1="195.887" y1="113.549" x2="163.476" y2="404.009" gradientUnits="userSpaceOnUse">
<stop stop-color="#FFD23F"/>
<stop offset="1" stop-color="#FFA514"/>
</linearGradient>
<linearGradient id="paint47_linear_505_1482" x1="195.887" y1="113.549" x2="163.476" y2="404.009" gradientUnits="userSpaceOnUse">
<stop stop-color="#FFD23F"/>
<stop offset="1" stop-color="#FFA514"/>
</linearGradient>
<linearGradient id="paint48_linear_505_1482" x1="195.887" y1="113.549" x2="163.476" y2="404.009" gradientUnits="userSpaceOnUse">
<stop stop-color="#FFD23F"/>
<stop offset="1" stop-color="#FFA514"/>
</linearGradient>
<linearGradient id="paint49_linear_505_1482" x1="195.887" y1="113.549" x2="163.476" y2="404.009" gradientUnits="userSpaceOnUse">
<stop stop-color="#FFD23F"/>
<stop offset="1" stop-color="#FFA514"/>
</linearGradient>
<linearGradient id="paint50_linear_505_1482" x1="195.887" y1="113.549" x2="163.476" y2="404.009" gradientUnits="userSpaceOnUse">
<stop stop-color="#FFD23F"/>
<stop offset="1" stop-color="#FFA514"/>
</linearGradient>
<linearGradient id="paint51_linear_505_1482" x1="195.887" y1="113.549" x2="163.476" y2="404.009" gradientUnits="userSpaceOnUse">
<stop stop-color="#FFD23F"/>
<stop offset="1" stop-color="#FFA514"/>
</linearGradient>
<linearGradient id="paint52_linear_505_1482" x1="195.887" y1="113.549" x2="163.476" y2="404.009" gradientUnits="userSpaceOnUse">
<stop stop-color="#FFD23F"/>
<stop offset="1" stop-color="#FFA514"/>
</linearGradient>
<linearGradient id="paint53_linear_505_1482" x1="195.887" y1="113.549" x2="163.476" y2="404.009" gradientUnits="userSpaceOnUse">
<stop stop-color="#FFD23F"/>
<stop offset="1" stop-color="#FFA514"/>
</linearGradient>
<linearGradient id="paint54_linear_505_1482" x1="195.887" y1="113.549" x2="163.476" y2="404.009" gradientUnits="userSpaceOnUse">
<stop stop-color="#FFD23F"/>
<stop offset="1" stop-color="#FFA514"/>
</linearGradient>
<linearGradient id="paint55_linear_505_1482" x1="195.887" y1="113.549" x2="163.476" y2="404.009" gradientUnits="userSpaceOnUse">
<stop stop-color="#FFD23F"/>
<stop offset="1" stop-color="#FFA514"/>
</linearGradient>
<linearGradient id="paint56_linear_505_1482" x1="195.887" y1="113.549" x2="163.476" y2="404.009" gradientUnits="userSpaceOnUse">
<stop stop-color="#FFD23F"/>
<stop offset="1" stop-color="#FFA514"/>
</linearGradient>
<linearGradient id="paint57_linear_505_1482" x1="195.887" y1="113.549" x2="163.476" y2="404.009" gradientUnits="userSpaceOnUse">
<stop stop-color="#FFD23F"/>
<stop offset="1" stop-color="#FFA514"/>
</linearGradient>
<linearGradient id="paint58_linear_505_1482" x1="195.887" y1="113.549" x2="163.476" y2="404.009" gradientUnits="userSpaceOnUse">
<stop stop-color="#FFD23F"/>
<stop offset="1" stop-color="#FFA514"/>
</linearGradient>
<linearGradient id="paint59_linear_505_1482" x1="195.887" y1="113.549" x2="163.476" y2="404.009" gradientUnits="userSpaceOnUse">
<stop stop-color="#FFD23F"/>
<stop offset="1" stop-color="#FFA514"/>
</linearGradient>
<linearGradient id="paint60_linear_505_1482" x1="195.887" y1="113.549" x2="163.476" y2="404.009" gradientUnits="userSpaceOnUse">
<stop stop-color="#FFD23F"/>
<stop offset="1" stop-color="#FFA514"/>
</linearGradient>
<linearGradient id="paint61_linear_505_1482" x1="195.887" y1="113.549" x2="163.476" y2="404.009" gradientUnits="userSpaceOnUse">
<stop stop-color="#FFD23F"/>
<stop offset="1" stop-color="#FFA514"/>
</linearGradient>
<linearGradient id="paint62_linear_505_1482" x1="195.887" y1="113.549" x2="163.476" y2="404.009" gradientUnits="userSpaceOnUse">
<stop stop-color="#FFD23F"/>
<stop offset="1" stop-color="#FFA514"/>
</linearGradient>
<linearGradient id="paint63_linear_505_1482" x1="195.887" y1="113.549" x2="163.476" y2="404.009" gradientUnits="userSpaceOnUse">
<stop stop-color="#FFD23F"/>
<stop offset="1" stop-color="#FFA514"/>
</linearGradient>
<linearGradient id="paint64_linear_505_1482" x1="195.887" y1="113.549" x2="163.476" y2="404.009" gradientUnits="userSpaceOnUse">
<stop stop-color="#FFD23F"/>
<stop offset="1" stop-color="#FFA514"/>
</linearGradient>
<linearGradient id="paint65_linear_505_1482" x1="195.887" y1="113.549" x2="163.476" y2="404.009" gradientUnits="userSpaceOnUse">
<stop stop-color="#FFD23F"/>
<stop offset="1" stop-color="#FFA514"/>
</linearGradient>
<linearGradient id="paint66_linear_505_1482" x1="195.887" y1="113.549" x2="163.476" y2="404.009" gradientUnits="userSpaceOnUse">
<stop stop-color="#FFD23F"/>
<stop offset="1" stop-color="#FFA514"/>
</linearGradient>
<linearGradient id="paint67_linear_505_1482" x1="195.887" y1="113.549" x2="163.476" y2="404.009" gradientUnits="userSpaceOnUse">
<stop stop-color="#FFD23F"/>
<stop offset="1" stop-color="#FFA514"/>
</linearGradient>
<linearGradient id="paint68_linear_505_1482" x1="195.887" y1="113.549" x2="163.476" y2="404.009" gradientUnits="userSpaceOnUse">
<stop stop-color="#FFD23F"/>
<stop offset="1" stop-color="#FFA514"/>
</linearGradient>
<linearGradient id="paint69_linear_505_1482" x1="195.887" y1="113.549" x2="163.476" y2="404.009" gradientUnits="userSpaceOnUse">
<stop stop-color="#FFD23F"/>
<stop offset="1" stop-color="#FFA514"/>
</linearGradient>
<linearGradient id="paint70_linear_505_1482" x1="195.887" y1="113.549" x2="163.476" y2="404.009" gradientUnits="userSpaceOnUse">
<stop stop-color="#FFD23F"/>
<stop offset="1" stop-color="#FFA514"/>
</linearGradient>
<linearGradient id="paint71_linear_505_1482" x1="195.887" y1="113.549" x2="163.476" y2="404.009" gradientUnits="userSpaceOnUse">
<stop stop-color="#FFD23F"/>
<stop offset="1" stop-color="#FFA514"/>
</linearGradient>
<linearGradient id="paint72_linear_505_1482" x1="195.887" y1="113.549" x2="163.476" y2="404.009" gradientUnits="userSpaceOnUse">
<stop stop-color="#FFD23F"/>
<stop offset="1" stop-color="#FFA514"/>
</linearGradient>
<linearGradient id="paint73_linear_505_1482" x1="195.887" y1="113.549" x2="163.476" y2="404.009" gradientUnits="userSpaceOnUse">
<stop stop-color="#FFD23F"/>
<stop offset="1" stop-color="#FFA514"/>
</linearGradient>
<linearGradient id="paint74_linear_505_1482" x1="195.887" y1="113.549" x2="163.476" y2="404.009" gradientUnits="userSpaceOnUse">
<stop stop-color="#FFD23F"/>
<stop offset="1" stop-color="#FFA514"/>
</linearGradient>
<linearGradient id="paint75_linear_505_1482" x1="195.887" y1="113.549" x2="163.476" y2="404.009" gradientUnits="userSpaceOnUse">
<stop stop-color="#FFD23F"/>
<stop offset="1" stop-color="#FFA514"/>
</linearGradient>
<linearGradient id="paint76_linear_505_1482" x1="195.887" y1="113.549" x2="163.476" y2="404.009" gradientUnits="userSpaceOnUse">
<stop stop-color="#FFD23F"/>
<stop offset="1" stop-color="#FFA514"/>
</linearGradient>
<linearGradient id="paint77_linear_505_1482" x1="195.887" y1="113.549" x2="163.476" y2="404.009" gradientUnits="userSpaceOnUse">
<stop stop-color="#FFD23F"/>
<stop offset="1" stop-color="#FFA514"/>
</linearGradient>
<linearGradient id="paint78_linear_505_1482" x1="195.887" y1="113.549" x2="163.476" y2="404.009" gradientUnits="userSpaceOnUse">
<stop stop-color="#FFD23F"/>
<stop offset="1" stop-color="#FFA514"/>
</linearGradient>
<linearGradient id="paint79_linear_505_1482" x1="195.887" y1="113.549" x2="163.476" y2="404.009" gradientUnits="userSpaceOnUse">
<stop stop-color="#FFD23F"/>
<stop offset="1" stop-color="#FFA514"/>
</linearGradient>
<linearGradient id="paint80_linear_505_1482" x1="195.887" y1="113.549" x2="163.476" y2="404.009" gradientUnits="userSpaceOnUse">
<stop stop-color="#FFD23F"/>
<stop offset="1" stop-color="#FFA514"/>
</linearGradient>
<linearGradient id="paint81_linear_505_1482" x1="195.887" y1="113.549" x2="163.476" y2="404.009" gradientUnits="userSpaceOnUse">
<stop stop-color="#FFD23F"/>
<stop offset="1" stop-color="#FFA514"/>
</linearGradient>
<linearGradient id="paint82_linear_505_1482" x1="195.887" y1="113.549" x2="163.476" y2="404.009" gradientUnits="userSpaceOnUse">
<stop stop-color="#FFD23F"/>
<stop offset="1" stop-color="#FFA514"/>
</linearGradient>
<linearGradient id="paint83_linear_505_1482" x1="195.887" y1="113.549" x2="163.476" y2="404.009" gradientUnits="userSpaceOnUse">
<stop stop-color="#FFD23F"/>
<stop offset="1" stop-color="#FFA514"/>
</linearGradient>
<linearGradient id="paint84_linear_505_1482" x1="195.887" y1="113.549" x2="163.476" y2="404.009" gradientUnits="userSpaceOnUse">
<stop stop-color="#FFD23F"/>
<stop offset="1" stop-color="#FFA514"/>
</linearGradient>
<linearGradient id="paint85_linear_505_1482" x1="195.887" y1="113.549" x2="163.476" y2="404.009" gradientUnits="userSpaceOnUse">
<stop stop-color="#FFD23F"/>
<stop offset="1" stop-color="#FFA514"/>
</linearGradient>
<linearGradient id="paint86_linear_505_1482" x1="195.887" y1="113.549" x2="163.476" y2="404.009" gradientUnits="userSpaceOnUse">
<stop stop-color="#FFD23F"/>
<stop offset="1" stop-color="#FFA514"/>
</linearGradient>
<linearGradient id="paint87_linear_505_1482" x1="195.887" y1="113.549" x2="163.476" y2="404.009" gradientUnits="userSpaceOnUse">
<stop stop-color="#FFD23F"/>
<stop offset="1" stop-color="#FFA514"/>
</linearGradient>
<linearGradient id="paint88_linear_505_1482" x1="195.887" y1="113.549" x2="163.476" y2="404.009" gradientUnits="userSpaceOnUse">
<stop stop-color="#FFD23F"/>
<stop offset="1" stop-color="#FFA514"/>
</linearGradient>
<linearGradient id="paint89_linear_505_1482" x1="195.887" y1="113.549" x2="163.476" y2="404.009" gradientUnits="userSpaceOnUse">
<stop stop-color="#FFD23F"/>
<stop offset="1" stop-color="#FFA514"/>
</linearGradient>
<linearGradient id="paint90_linear_505_1482" x1="195.887" y1="113.549" x2="163.476" y2="404.009" gradientUnits="userSpaceOnUse">
<stop stop-color="#FFD23F"/>
<stop offset="1" stop-color="#FFA514"/>
</linearGradient>
</defs>
</svg>
